<?xml version="1.0" encoding="utf-8" standalone="no"?>
<!DOCTYPE svg PUBLIC "-//W3C//DTD SVG 1.1//EN"
  "http://www.w3.org/Graphics/SVG/1.1/DTD/svg11.dtd">
<svg height="269.452187pt" version="1.1" viewBox="0 0 275.04125 269.452187" width="275.04125pt" xmlns="http://www.w3.org/2000/svg" xmlns:xlink="http://www.w3.org/1999/xlink">
 <metadata>
  <rdf:RDF xmlns:cc="http://creativecommons.org/ns#" xmlns:dc="http://purl.org/dc/elements/1.1/" xmlns:rdf="http://www.w3.org/1999/02/22-rdf-syntax-ns#">
   <cc:Work>
    <dc:type rdf:resource="http://purl.org/dc/dcmitype/StillImage"/>
    <dc:date>2023-09-22T14:16:26.180135</dc:date>
    <dc:format>image/svg+xml</dc:format>
    <dc:creator>
     <cc:Agent>
      <dc:title>Matplotlib v3.4.3, https://matplotlib.org/</dc:title>
     </cc:Agent>
    </dc:creator>
   </cc:Work>
  </rdf:RDF>
 </metadata>
 <defs>
  <style type="text/css">*{stroke-linecap:butt;stroke-linejoin:round;}</style>
 </defs>
 <g id="figure_1">
  <g id="patch_1">
   <path d="M 0 269.452187 
L 275.04125 269.452187 
L 275.04125 0 
L 0 0 
z
" style="fill:none;"/>
  </g>
  <g id="axes_1">
   <g id="patch_2">
    <path d="M 44.64125 245.13375 
L 267.84125 245.13375 
L 267.84125 27.69375 
L 44.64125 27.69375 
z
" style="fill:#eaeaf2;"/>
   </g>
   <g id="matplotlib.axis_1">
    <g id="xtick_1">
     <g id="line2d_1"/>
     <g id="text_1">
      <!-- 0 -->
      <g style="fill:#262626;" transform="translate(51.172095 259.554688)scale(0.13 -0.13)">
       <defs>
        <path d="M 3309 2203 
Q 3309 1100 2920 518 
Q 2531 -63 1772 -63 
Q 1013 -63 631 515 
Q 250 1094 250 2203 
Q 250 3338 620 3903 
Q 991 4469 1791 4469 
Q 2569 4469 2939 3897 
Q 3309 3325 3309 2203 
z
M 2738 2203 
Q 2738 3156 2517 3584 
Q 2297 4013 1791 4013 
Q 1272 4013 1045 3591 
Q 819 3169 819 2203 
Q 819 1266 1048 831 
Q 1278 397 1778 397 
Q 2275 397 2506 840 
Q 2738 1284 2738 2203 
z
" id="LiberationSans-30" transform="scale(0.015625)"/>
       </defs>
       <use xlink:href="#LiberationSans-30"/>
      </g>
     </g>
    </g>
    <g id="xtick_2">
     <g id="line2d_2"/>
     <g id="text_2">
      <!-- 50 -->
      <g style="fill:#262626;" transform="translate(94.310733 259.554688)scale(0.13 -0.13)">
       <defs>
        <path d="M 3291 1434 
Q 3291 738 2877 337 
Q 2463 -63 1728 -63 
Q 1113 -63 734 206 
Q 356 475 256 984 
L 825 1050 
Q 1003 397 1741 397 
Q 2194 397 2450 670 
Q 2706 944 2706 1422 
Q 2706 1838 2448 2094 
Q 2191 2350 1753 2350 
Q 1525 2350 1328 2278 
Q 1131 2206 934 2034 
L 384 2034 
L 531 4403 
L 3034 4403 
L 3034 3925 
L 1044 3925 
L 959 2528 
Q 1325 2809 1869 2809 
Q 2519 2809 2905 2428 
Q 3291 2047 3291 1434 
z
" id="LiberationSans-35" transform="scale(0.015625)"/>
       </defs>
       <use xlink:href="#LiberationSans-35"/>
       <use x="55.615234" xlink:href="#LiberationSans-30"/>
      </g>
     </g>
    </g>
    <g id="xtick_3">
     <g id="line2d_3"/>
     <g id="text_3">
      <!-- 100 -->
      <g style="fill:#262626;" transform="translate(137.44937 259.554688)scale(0.13 -0.13)">
       <defs>
        <path d="M 488 0 
L 488 478 
L 1609 478 
L 1609 3866 
L 616 3156 
L 616 3688 
L 1656 4403 
L 2175 4403 
L 2175 478 
L 3247 478 
L 3247 0 
L 488 0 
z
" id="LiberationSans-31" transform="scale(0.015625)"/>
       </defs>
       <use xlink:href="#LiberationSans-31"/>
       <use x="55.615234" xlink:href="#LiberationSans-30"/>
       <use x="111.230469" xlink:href="#LiberationSans-30"/>
      </g>
     </g>
    </g>
    <g id="xtick_4">
     <g id="line2d_4"/>
     <g id="text_4">
      <!-- 150 -->
      <g style="fill:#262626;" transform="translate(184.202617 259.554688)scale(0.13 -0.13)">
       <use xlink:href="#LiberationSans-31"/>
       <use x="55.615234" xlink:href="#LiberationSans-35"/>
       <use x="111.230469" xlink:href="#LiberationSans-30"/>
      </g>
     </g>
    </g>
    <g id="xtick_5">
     <g id="line2d_5"/>
     <g id="text_5">
      <!-- 200 -->
      <g style="fill:#262626;" transform="translate(230.955863 259.554688)scale(0.13 -0.13)">
       <defs>
        <path d="M 322 0 
L 322 397 
Q 481 763 711 1042 
Q 941 1322 1194 1548 
Q 1447 1775 1695 1969 
Q 1944 2163 2144 2356 
Q 2344 2550 2467 2762 
Q 2591 2975 2591 3244 
Q 2591 3606 2378 3806 
Q 2166 4006 1788 4006 
Q 1428 4006 1195 3811 
Q 963 3616 922 3263 
L 347 3316 
Q 409 3844 795 4156 
Q 1181 4469 1788 4469 
Q 2453 4469 2811 4155 
Q 3169 3841 3169 3263 
Q 3169 3006 3051 2753 
Q 2934 2500 2703 2247 
Q 2472 1994 1819 1463 
Q 1459 1169 1246 933 
Q 1034 697 941 478 
L 3238 478 
L 3238 0 
L 322 0 
z
" id="LiberationSans-32" transform="scale(0.015625)"/>
       </defs>
       <use xlink:href="#LiberationSans-32"/>
       <use x="55.615234" xlink:href="#LiberationSans-30"/>
       <use x="111.230469" xlink:href="#LiberationSans-30"/>
      </g>
     </g>
    </g>
   </g>
   <g id="matplotlib.axis_2">
    <g id="ytick_1">
     <g id="line2d_6"/>
     <g id="text_6">
      <!-- 0 -->
      <g style="fill:#262626;" transform="translate(32.412031 239.960582)scale(0.13 -0.13)">
       <use xlink:href="#LiberationSans-30"/>
      </g>
     </g>
    </g>
    <g id="ytick_2">
     <g id="line2d_7"/>
     <g id="text_7">
      <!-- 5 -->
      <g style="fill:#262626;" transform="translate(32.412031 211.606131)scale(0.13 -0.13)">
       <use xlink:href="#LiberationSans-35"/>
      </g>
     </g>
    </g>
    <g id="ytick_3">
     <g id="line2d_8"/>
     <g id="text_8">
      <!-- 10 -->
      <g style="fill:#262626;" transform="translate(25.182813 183.25168)scale(0.13 -0.13)">
       <use xlink:href="#LiberationSans-31"/>
       <use x="55.615234" xlink:href="#LiberationSans-30"/>
      </g>
     </g>
    </g>
    <g id="ytick_4">
     <g id="line2d_9"/>
     <g id="text_9">
      <!-- 15 -->
      <g style="fill:#262626;" transform="translate(25.182813 154.897228)scale(0.13 -0.13)">
       <use xlink:href="#LiberationSans-31"/>
       <use x="55.615234" xlink:href="#LiberationSans-35"/>
      </g>
     </g>
    </g>
    <g id="ytick_5">
     <g id="line2d_10"/>
     <g id="text_10">
      <!-- 20 -->
      <g style="fill:#262626;" transform="translate(25.182813 126.542777)scale(0.13 -0.13)">
       <use xlink:href="#LiberationSans-32"/>
       <use x="55.615234" xlink:href="#LiberationSans-30"/>
      </g>
     </g>
    </g>
    <g id="ytick_6">
     <g id="line2d_11"/>
     <g id="text_11">
      <!-- 25 -->
      <g style="fill:#262626;" transform="translate(25.182813 98.188326)scale(0.13 -0.13)">
       <use xlink:href="#LiberationSans-32"/>
       <use x="55.615234" xlink:href="#LiberationSans-35"/>
      </g>
     </g>
    </g>
    <g id="ytick_7">
     <g id="line2d_12"/>
     <g id="text_12">
      <!-- 30 -->
      <g style="fill:#262626;" transform="translate(25.182813 69.833874)scale(0.13 -0.13)">
       <defs>
        <path d="M 3278 1216 
Q 3278 606 2890 271 
Q 2503 -63 1784 -63 
Q 1116 -63 717 239 
Q 319 541 244 1131 
L 825 1184 
Q 938 403 1784 403 
Q 2209 403 2451 612 
Q 2694 822 2694 1234 
Q 2694 1594 2417 1795 
Q 2141 1997 1619 1997 
L 1300 1997 
L 1300 2484 
L 1606 2484 
Q 2069 2484 2323 2686 
Q 2578 2888 2578 3244 
Q 2578 3597 2370 3801 
Q 2163 4006 1753 4006 
Q 1381 4006 1151 3815 
Q 922 3625 884 3278 
L 319 3322 
Q 381 3863 767 4166 
Q 1153 4469 1759 4469 
Q 2422 4469 2789 4161 
Q 3156 3853 3156 3303 
Q 3156 2881 2920 2617 
Q 2684 2353 2234 2259 
L 2234 2247 
Q 2728 2194 3003 1916 
Q 3278 1638 3278 1216 
z
" id="LiberationSans-33" transform="scale(0.015625)"/>
       </defs>
       <use xlink:href="#LiberationSans-33"/>
       <use x="55.615234" xlink:href="#LiberationSans-30"/>
      </g>
     </g>
    </g>
    <g id="ytick_8">
     <g id="line2d_13"/>
     <g id="text_13">
      <!-- 35 -->
      <g style="fill:#262626;" transform="translate(25.182813 41.479423)scale(0.13 -0.13)">
       <use xlink:href="#LiberationSans-33"/>
       <use x="55.615234" xlink:href="#LiberationSans-35"/>
      </g>
     </g>
    </g>
    <g id="text_14">
     <!-- cum_dist [nm] -->
     <g style="fill:#262626;" transform="translate(18.070312 183.091875)rotate(-90)scale(0.15 -0.15)">
      <defs>
       <path d="M 859 1706 
Q 859 1031 1071 706 
Q 1284 381 1713 381 
Q 2013 381 2214 543 
Q 2416 706 2463 1044 
L 3031 1006 
Q 2966 519 2616 228 
Q 2266 -63 1728 -63 
Q 1019 -63 645 385 
Q 272 834 272 1694 
Q 272 2547 647 2995 
Q 1022 3444 1722 3444 
Q 2241 3444 2583 3175 
Q 2925 2906 3013 2434 
L 2434 2391 
Q 2391 2672 2212 2837 
Q 2034 3003 1706 3003 
Q 1259 3003 1059 2706 
Q 859 2409 859 1706 
z
" id="LiberationSans-63" transform="scale(0.015625)"/>
       <path d="M 981 3381 
L 981 1238 
Q 981 903 1047 718 
Q 1113 534 1256 453 
Q 1400 372 1678 372 
Q 2084 372 2318 650 
Q 2553 928 2553 1422 
L 2553 3381 
L 3116 3381 
L 3116 722 
Q 3116 131 3134 0 
L 2603 0 
Q 2600 16 2597 84 
Q 2594 153 2589 242 
Q 2584 331 2578 578 
L 2569 578 
Q 2375 228 2120 82 
Q 1866 -63 1488 -63 
Q 931 -63 673 214 
Q 416 491 416 1128 
L 416 3381 
L 981 3381 
z
" id="LiberationSans-75" transform="scale(0.015625)"/>
       <path d="M 2400 0 
L 2400 2144 
Q 2400 2634 2265 2821 
Q 2131 3009 1781 3009 
Q 1422 3009 1212 2734 
Q 1003 2459 1003 1959 
L 1003 0 
L 444 0 
L 444 2659 
Q 444 3250 425 3381 
L 956 3381 
Q 959 3366 962 3297 
Q 966 3228 970 3139 
Q 975 3050 981 2803 
L 991 2803 
Q 1172 3163 1406 3303 
Q 1641 3444 1978 3444 
Q 2363 3444 2586 3291 
Q 2809 3138 2897 2803 
L 2906 2803 
Q 3081 3144 3329 3294 
Q 3578 3444 3931 3444 
Q 4444 3444 4676 3166 
Q 4909 2888 4909 2253 
L 4909 0 
L 4353 0 
L 4353 2144 
Q 4353 2634 4218 2821 
Q 4084 3009 3734 3009 
Q 3366 3009 3161 2736 
Q 2956 2463 2956 1959 
L 2956 0 
L 2400 0 
z
" id="LiberationSans-6d" transform="scale(0.015625)"/>
       <path d="M -97 -1272 
L -97 -866 
L 3631 -866 
L 3631 -1272 
L -97 -1272 
z
" id="LiberationSans-5f" transform="scale(0.015625)"/>
       <path d="M 2566 544 
Q 2409 219 2151 78 
Q 1894 -63 1513 -63 
Q 872 -63 570 368 
Q 269 800 269 1675 
Q 269 3444 1513 3444 
Q 1897 3444 2153 3303 
Q 2409 3163 2566 2856 
L 2572 2856 
L 2566 3234 
L 2566 4638 
L 3128 4638 
L 3128 697 
Q 3128 169 3147 0 
L 2609 0 
Q 2600 50 2589 231 
Q 2578 413 2578 544 
L 2566 544 
z
M 859 1694 
Q 859 984 1046 678 
Q 1234 372 1656 372 
Q 2134 372 2350 703 
Q 2566 1034 2566 1731 
Q 2566 2403 2350 2715 
Q 2134 3028 1663 3028 
Q 1238 3028 1048 2714 
Q 859 2400 859 1694 
z
" id="LiberationSans-64" transform="scale(0.015625)"/>
       <path d="M 428 4100 
L 428 4638 
L 991 4638 
L 991 4100 
L 428 4100 
z
M 428 0 
L 428 3381 
L 991 3381 
L 991 0 
L 428 0 
z
" id="LiberationSans-69" transform="scale(0.015625)"/>
       <path d="M 2969 934 
Q 2969 456 2608 196 
Q 2247 -63 1597 -63 
Q 966 -63 623 145 
Q 281 353 178 794 
L 675 891 
Q 747 619 972 492 
Q 1197 366 1597 366 
Q 2025 366 2223 497 
Q 2422 628 2422 891 
Q 2422 1091 2284 1216 
Q 2147 1341 1841 1422 
L 1438 1528 
Q 953 1653 748 1773 
Q 544 1894 428 2066 
Q 313 2238 313 2488 
Q 313 2950 642 3192 
Q 972 3434 1603 3434 
Q 2163 3434 2492 3237 
Q 2822 3041 2909 2606 
L 2403 2544 
Q 2356 2769 2151 2889 
Q 1947 3009 1603 3009 
Q 1222 3009 1040 2893 
Q 859 2778 859 2544 
Q 859 2400 934 2306 
Q 1009 2213 1156 2147 
Q 1303 2081 1775 1966 
Q 2222 1853 2419 1758 
Q 2616 1663 2730 1547 
Q 2844 1431 2906 1279 
Q 2969 1128 2969 934 
z
" id="LiberationSans-73" transform="scale(0.015625)"/>
       <path d="M 1731 25 
Q 1453 -50 1163 -50 
Q 488 -50 488 716 
L 488 2972 
L 97 2972 
L 97 3381 
L 509 3381 
L 675 4138 
L 1050 4138 
L 1050 3381 
L 1675 3381 
L 1675 2972 
L 1050 2972 
L 1050 838 
Q 1050 594 1129 495 
Q 1209 397 1406 397 
Q 1519 397 1731 441 
L 1731 25 
z
" id="LiberationSans-74" transform="scale(0.015625)"/>
       <path id="LiberationSans-20" transform="scale(0.015625)"/>
       <path d="M 456 -1328 
L 456 4638 
L 1728 4638 
L 1728 4234 
L 1000 4234 
L 1000 -925 
L 1728 -925 
L 1728 -1328 
L 456 -1328 
z
" id="LiberationSans-5b" transform="scale(0.015625)"/>
       <path d="M 2578 0 
L 2578 2144 
Q 2578 2478 2512 2662 
Q 2447 2847 2303 2928 
Q 2159 3009 1881 3009 
Q 1475 3009 1240 2731 
Q 1006 2453 1006 1959 
L 1006 0 
L 444 0 
L 444 2659 
Q 444 3250 425 3381 
L 956 3381 
Q 959 3366 962 3297 
Q 966 3228 970 3139 
Q 975 3050 981 2803 
L 991 2803 
Q 1184 3153 1439 3298 
Q 1694 3444 2072 3444 
Q 2628 3444 2886 3167 
Q 3144 2891 3144 2253 
L 3144 0 
L 2578 0 
z
" id="LiberationSans-6e" transform="scale(0.015625)"/>
       <path d="M 50 -1328 
L 50 -925 
L 778 -925 
L 778 4234 
L 50 4234 
L 50 4638 
L 1322 4638 
L 1322 -1328 
L 50 -1328 
z
" id="LiberationSans-5d" transform="scale(0.015625)"/>
      </defs>
      <use xlink:href="#LiberationSans-63"/>
      <use x="50" xlink:href="#LiberationSans-75"/>
      <use x="105.615234" xlink:href="#LiberationSans-6d"/>
      <use x="188.916016" xlink:href="#LiberationSans-5f"/>
      <use x="244.53125" xlink:href="#LiberationSans-64"/>
      <use x="300.146484" xlink:href="#LiberationSans-69"/>
      <use x="322.363281" xlink:href="#LiberationSans-73"/>
      <use x="372.363281" xlink:href="#LiberationSans-74"/>
      <use x="400.146484" xlink:href="#LiberationSans-20"/>
      <use x="427.929688" xlink:href="#LiberationSans-5b"/>
      <use x="455.712891" xlink:href="#LiberationSans-6e"/>
      <use x="511.328125" xlink:href="#LiberationSans-6d"/>
      <use x="594.628906" xlink:href="#LiberationSans-5d"/>
     </g>
    </g>
   </g>
   <g id="line2d_14">
    <path clip-path="url(#pc159259cb0)" d="M 54.786705 235.250114 
L 55.721769 232.243492 
L 56.656834 222.12595 
L 57.591899 210.093054 
L 58.526964 197.870129 
L 59.462029 188.688549 
L 60.397094 179.920319 
L 61.332159 175.481407 
L 62.267224 170.208758 
L 63.202289 168.278099 
L 64.137354 167.805317 
L 65.072419 166.888868 
L 66.007484 165.826253 
L 66.942549 164.634645 
L 67.877614 162.352805 
L 68.812679 158.108332 
L 69.747744 155.572786 
L 70.682808 154.335588 
L 71.617873 153.911209 
L 72.552938 153.690731 
L 73.488003 153.528354 
L 74.423068 153.130218 
L 75.358133 152.597455 
L 76.293198 152.176926 
L 77.228263 151.968146 
L 78.163328 151.926671 
L 79.098393 151.828999 
L 80.033458 151.669202 
L 80.968523 151.501394 
L 81.903588 151.374407 
L 82.838653 151.313184 
L 83.773718 151.307464 
L 84.708782 151.261885 
L 85.643847 151.1985 
L 86.578912 151.139278 
L 87.513977 151.09849 
L 88.449042 151.08054 
L 89.384107 151.070762 
L 90.319172 151.050299 
L 91.254237 151.025905 
L 92.189302 151.004808 
L 93.124367 150.991118 
L 94.059432 150.9846 
L 94.994497 150.978431 
L 95.929562 150.969535 
L 96.864627 150.960178 
L 97.799692 150.952578 
" style="fill:none;stroke:#4c72b0;stroke-linecap:round;stroke-width:1.75;"/>
   </g>
   <g id="line2d_15">
    <path clip-path="url(#pc159259cb0)" d="M 54.786705 235.250114 
L 55.721769 234.442528 
L 58.526964 197.694085 
L 61.332159 178.676995 
L 62.267224 169.44654 
L 63.202289 165.818719 
L 64.137354 156.510246 
L 65.072419 150.439541 
L 66.007484 149.523294 
L 66.942549 137.907252 
L 68.812679 136.38452 
L 71.617873 117.909894 
L 72.552938 117.264047 
L 73.488003 108.388298 
L 74.423068 107.803364 
L 75.358133 101.911968 
L 76.293198 101.382428 
L 78.163328 89.369939 
L 80.968523 88.049645 
L 82.838653 76.095825 
L 86.578912 74.722282 
L 87.513977 74.421889 
L 88.449042 68.542537 
L 89.384107 68.271474 
L 90.319172 59.75574 
L 93.124367 59.018568 
L 94.059432 53.350008 
L 94.994497 53.140747 
L 95.929562 47.399838 
L 98.734756 46.862336 
L 99.669821 41.106943 
L 105.280211 40.239314 
L 111.825666 39.485425 
L 119.306185 38.8775 
L 127.721769 38.417419 
L 138.942549 38.04177 
L 153.903588 37.781393 
L 177.280211 37.622521 
L 197.85164 37.577386 
L 197.85164 37.577386 
" style="fill:none;stroke:#dd8452;stroke-linecap:round;stroke-width:1.75;"/>
   </g>
   <g id="line2d_16">
    <path clip-path="url(#pc159259cb0)" d="M 54.786705 235.250114 
L 55.721769 234.664096 
L 58.526964 216.873711 
L 59.462029 215.679012 
L 60.397094 214.679819 
L 63.202289 197.954738 
L 66.007484 194.918986 
L 68.812679 178.984141 
L 69.747744 178.106565 
L 71.617873 167.714765 
L 73.488003 157.283631 
L 76.293198 154.984341 
L 77.228263 145.444204 
L 80.968523 142.674279 
L 82.838653 132.450204 
L 85.643847 130.621144 
L 86.578912 125.704029 
L 88.449042 124.570883 
L 89.384107 117.314657 
L 91.254237 116.257333 
L 92.189302 111.399122 
L 95.929562 109.495851 
L 96.864627 104.591767 
L 97.799692 104.171803 
L 98.734756 99.22126 
L 103.410081 97.231697 
L 104.345146 96.86237 
L 106.215276 87.031213 
L 111.825666 85.083209 
L 115.565925 83.933506 
L 116.50099 79.055556 
L 119.306185 78.300842 
L 120.24125 71.376545 
L 125.85164 70.014501 
L 126.786705 65.374447 
L 130.526964 64.593598 
L 131.462029 59.903792 
L 136.137354 59.068452 
L 137.072419 54.342948 
L 144.552938 53.201741 
L 152.968523 52.156344 
L 162.319172 51.233447 
L 172.604886 50.446326 
L 184.760731 49.750553 
L 198.786705 49.178538 
L 215.617873 48.717858 
L 237.124367 48.358506 
L 257.695795 48.159861 
L 257.695795 48.159861 
" style="fill:none;stroke:#55a868;stroke-linecap:round;stroke-width:1.75;"/>
   </g>
   <g id="line2d_17">
    <path clip-path="url(#pc159259cb0)" d="M 54.786705 235.250114 
L 55.721769 232.857595 
L 56.656834 221.999254 
L 57.591899 209.501378 
L 58.526964 195.79453 
L 59.462029 187.190565 
L 60.397094 179.350155 
L 61.332159 176.799427 
L 62.267224 168.926771 
L 63.202289 167.615749 
L 64.137354 167.38018 
L 65.072419 166.665341 
L 66.007484 165.899944 
L 66.942549 165.109894 
L 67.877614 163.924299 
L 68.812679 156.610179 
L 69.747744 154.80561 
L 70.682808 153.904939 
L 71.617873 153.611674 
L 72.552938 153.480741 
L 73.488003 153.35557 
L 74.423068 153.044578 
L 75.358133 152.641592 
L 76.293198 152.330279 
L 77.228263 152.181604 
L 78.163328 152.153406 
L 79.098393 152.072565 
L 80.033458 151.949426 
L 80.968523 151.823998 
L 81.903588 151.731403 
L 82.838653 151.689096 
L 83.773718 151.683198 
L 84.708782 151.646716 
L 85.643847 151.598315 
L 86.578912 151.554334 
L 87.513977 151.524948 
L 88.449042 151.512836 
L 89.384107 151.504996 
L 90.319172 151.489061 
L 91.254237 151.470626 
L 92.189302 151.455066 
L 93.124367 151.445273 
L 94.059432 151.440741 
L 94.994497 151.435952 
L 95.929562 151.42914 
L 96.864627 151.42213 
L 97.799692 151.416558 
" style="fill:none;stroke:#c44e52;stroke-linecap:round;stroke-width:1.75;"/>
   </g>
   <g id="line2d_18">
    <path clip-path="url(#pc159259cb0)" d="M 54.786705 235.250114 
L 55.721769 234.008944 
L 56.656834 218.389953 
L 57.591899 205.60494 
L 58.526964 197.237889 
L 59.462029 189.247383 
" style="fill:none;stroke:#8172b3;stroke-linecap:round;stroke-width:1.75;"/>
   </g>
   <g id="patch_3">
    <path d="M 44.64125 245.13375 
L 44.64125 27.69375 
" style="fill:none;"/>
   </g>
   <g id="patch_4">
    <path d="M 267.84125 245.13375 
L 267.84125 27.69375 
" style="fill:none;"/>
   </g>
   <g id="patch_5">
    <path d="M 44.64125 245.13375 
L 267.84125 245.13375 
" style="fill:none;"/>
   </g>
   <g id="patch_6">
    <path d="M 44.64125 27.69375 
L 267.84125 27.69375 
" style="fill:none;"/>
   </g>
   <g id="text_15">
    <!-- cumulative distance -->
    <g style="fill:#262626;" transform="translate(68.424063 21.69375)scale(0.2 -0.2)">
     <defs>
      <path d="M 431 0 
L 431 4638 
L 994 4638 
L 994 0 
L 431 0 
z
" id="LiberationSans-6c" transform="scale(0.015625)"/>
      <path d="M 1294 -63 
Q 784 -63 528 206 
Q 272 475 272 944 
Q 272 1469 617 1750 
Q 963 2031 1731 2050 
L 2491 2063 
L 2491 2247 
Q 2491 2659 2316 2837 
Q 2141 3016 1766 3016 
Q 1388 3016 1216 2887 
Q 1044 2759 1009 2478 
L 422 2531 
Q 566 3444 1778 3444 
Q 2416 3444 2737 3151 
Q 3059 2859 3059 2306 
L 3059 850 
Q 3059 600 3125 473 
Q 3191 347 3375 347 
Q 3456 347 3559 369 
L 3559 19 
Q 3347 -31 3125 -31 
Q 2813 -31 2670 133 
Q 2528 297 2509 647 
L 2491 647 
Q 2275 259 1989 98 
Q 1703 -63 1294 -63 
z
M 1422 359 
Q 1731 359 1972 500 
Q 2213 641 2352 886 
Q 2491 1131 2491 1391 
L 2491 1669 
L 1875 1656 
Q 1478 1650 1273 1575 
Q 1069 1500 959 1344 
Q 850 1188 850 934 
Q 850 659 998 509 
Q 1147 359 1422 359 
z
" id="LiberationSans-61" transform="scale(0.015625)"/>
      <path d="M 1916 0 
L 1250 0 
L 22 3381 
L 622 3381 
L 1366 1181 
Q 1406 1056 1581 441 
L 1691 806 
L 1813 1175 
L 2581 3381 
L 3178 3381 
L 1916 0 
z
" id="LiberationSans-76" transform="scale(0.015625)"/>
      <path d="M 863 1572 
Q 863 991 1103 675 
Q 1344 359 1806 359 
Q 2172 359 2392 506 
Q 2613 653 2691 878 
L 3184 738 
Q 2881 -63 1806 -63 
Q 1056 -63 664 384 
Q 272 831 272 1713 
Q 272 2550 664 2997 
Q 1056 3444 1784 3444 
Q 3275 3444 3275 1647 
L 3275 1572 
L 863 1572 
z
M 2694 2003 
Q 2647 2538 2422 2783 
Q 2197 3028 1775 3028 
Q 1366 3028 1127 2754 
Q 888 2481 869 2003 
L 2694 2003 
z
" id="LiberationSans-65" transform="scale(0.015625)"/>
     </defs>
     <use xlink:href="#LiberationSans-63"/>
     <use x="50" xlink:href="#LiberationSans-75"/>
     <use x="105.615234" xlink:href="#LiberationSans-6d"/>
     <use x="188.916016" xlink:href="#LiberationSans-75"/>
     <use x="244.53125" xlink:href="#LiberationSans-6c"/>
     <use x="266.748047" xlink:href="#LiberationSans-61"/>
     <use x="322.363281" xlink:href="#LiberationSans-74"/>
     <use x="350.146484" xlink:href="#LiberationSans-69"/>
     <use x="372.363281" xlink:href="#LiberationSans-76"/>
     <use x="422.363281" xlink:href="#LiberationSans-65"/>
     <use x="477.978516" xlink:href="#LiberationSans-20"/>
     <use x="505.761719" xlink:href="#LiberationSans-64"/>
     <use x="561.376953" xlink:href="#LiberationSans-69"/>
     <use x="583.59375" xlink:href="#LiberationSans-73"/>
     <use x="633.59375" xlink:href="#LiberationSans-74"/>
     <use x="661.376953" xlink:href="#LiberationSans-61"/>
     <use x="716.992188" xlink:href="#LiberationSans-6e"/>
     <use x="772.607422" xlink:href="#LiberationSans-63"/>
     <use x="822.607422" xlink:href="#LiberationSans-65"/>
    </g>
   </g>
   <g id="legend_1">
    <g id="line2d_19">
     <path d="M 159.411875 158.89875 
L 183.411875 158.89875 
" style="fill:none;stroke:#4c72b0;stroke-linecap:round;stroke-width:1.75;"/>
    </g>
    <g id="line2d_20"/>
    <g id="text_16">
     <!-- BP -->
     <g style="fill:#262626;" transform="translate(193.011875 163.09875)scale(0.12 -0.12)">
      <defs>
       <path d="M 3931 1241 
Q 3931 653 3503 326 
Q 3075 0 2313 0 
L 525 0 
L 525 4403 
L 2125 4403 
Q 3675 4403 3675 3334 
Q 3675 2944 3456 2678 
Q 3238 2413 2838 2322 
Q 3363 2259 3647 1970 
Q 3931 1681 3931 1241 
z
M 3075 3263 
Q 3075 3619 2831 3772 
Q 2588 3925 2125 3925 
L 1122 3925 
L 1122 2531 
L 2125 2531 
Q 2603 2531 2839 2711 
Q 3075 2891 3075 3263 
z
M 3328 1288 
Q 3328 2066 2234 2066 
L 1122 2066 
L 1122 478 
L 2281 478 
Q 2828 478 3078 681 
Q 3328 884 3328 1288 
z
" id="LiberationSans-42" transform="scale(0.015625)"/>
       <path d="M 3931 3078 
Q 3931 2453 3523 2084 
Q 3116 1716 2416 1716 
L 1122 1716 
L 1122 0 
L 525 0 
L 525 4403 
L 2378 4403 
Q 3119 4403 3525 4056 
Q 3931 3709 3931 3078 
z
M 3331 3072 
Q 3331 3925 2306 3925 
L 1122 3925 
L 1122 2188 
L 2331 2188 
Q 3331 2188 3331 3072 
z
" id="LiberationSans-50" transform="scale(0.015625)"/>
      </defs>
      <use xlink:href="#LiberationSans-42"/>
      <use x="66.699219" xlink:href="#LiberationSans-50"/>
     </g>
    </g>
    <g id="line2d_21">
     <path d="M 159.411875 176.085 
L 183.411875 176.085 
" style="fill:none;stroke:#dd8452;stroke-linecap:round;stroke-width:1.75;"/>
    </g>
    <g id="line2d_22"/>
    <g id="text_17">
     <!-- BV -->
     <g style="fill:#262626;" transform="translate(193.011875 180.285)scale(0.12 -0.12)">
      <defs>
       <path d="M 2444 0 
L 1825 0 
L 28 4403 
L 656 4403 
L 1875 1303 
L 2138 525 
L 2400 1303 
L 3613 4403 
L 4241 4403 
L 2444 0 
z
" id="LiberationSans-56" transform="scale(0.015625)"/>
      </defs>
      <use xlink:href="#LiberationSans-42"/>
      <use x="66.699219" xlink:href="#LiberationSans-56"/>
     </g>
    </g>
    <g id="line2d_23">
     <path d="M 159.411875 193.27125 
L 183.411875 193.27125 
" style="fill:none;stroke:#55a868;stroke-linecap:round;stroke-width:1.75;"/>
    </g>
    <g id="line2d_24"/>
    <g id="text_18">
     <!-- CV -->
     <g style="fill:#262626;" transform="translate(193.011875 197.47125)scale(0.12 -0.12)">
      <defs>
       <path d="M 2475 3981 
Q 1744 3981 1337 3511 
Q 931 3041 931 2222 
Q 931 1413 1354 920 
Q 1778 428 2500 428 
Q 3425 428 3891 1344 
L 4378 1100 
Q 4106 531 3614 234 
Q 3122 -63 2472 -63 
Q 1806 -63 1320 214 
Q 834 491 579 1005 
Q 325 1519 325 2222 
Q 325 3275 894 3872 
Q 1463 4469 2469 4469 
Q 3172 4469 3644 4194 
Q 4116 3919 4338 3378 
L 3772 3191 
Q 3619 3575 3280 3778 
Q 2941 3981 2475 3981 
z
" id="LiberationSans-43" transform="scale(0.015625)"/>
      </defs>
      <use xlink:href="#LiberationSans-43"/>
      <use x="72.216797" xlink:href="#LiberationSans-56"/>
     </g>
    </g>
    <g id="line2d_25">
     <path d="M 159.411875 210.4575 
L 183.411875 210.4575 
" style="fill:none;stroke:#c44e52;stroke-linecap:round;stroke-width:1.75;"/>
    </g>
    <g id="line2d_26"/>
    <g id="text_19">
     <!-- BPV bottom -->
     <g style="fill:#262626;" transform="translate(193.011875 214.6575)scale(0.12 -0.12)">
      <defs>
       <path d="M 3291 1706 
Q 3291 -63 2047 -63 
Q 1663 -63 1408 76 
Q 1153 216 994 525 
L 988 525 
Q 988 428 975 229 
Q 963 31 956 0 
L 413 0 
Q 431 169 431 697 
L 431 4638 
L 994 4638 
L 994 3316 
Q 994 3113 981 2838 
L 994 2838 
Q 1150 3163 1408 3303 
Q 1666 3444 2047 3444 
Q 2688 3444 2989 3012 
Q 3291 2581 3291 1706 
z
M 2700 1688 
Q 2700 2397 2512 2703 
Q 2325 3009 1903 3009 
Q 1428 3009 1211 2684 
Q 994 2359 994 1653 
Q 994 988 1206 670 
Q 1419 353 1897 353 
Q 2322 353 2511 667 
Q 2700 981 2700 1688 
z
" id="LiberationSans-62" transform="scale(0.015625)"/>
       <path d="M 3291 1694 
Q 3291 806 2900 371 
Q 2509 -63 1766 -63 
Q 1025 -63 647 389 
Q 269 841 269 1694 
Q 269 3444 1784 3444 
Q 2559 3444 2925 3017 
Q 3291 2591 3291 1694 
z
M 2700 1694 
Q 2700 2394 2492 2711 
Q 2284 3028 1794 3028 
Q 1300 3028 1079 2704 
Q 859 2381 859 1694 
Q 859 1025 1076 689 
Q 1294 353 1759 353 
Q 2266 353 2483 678 
Q 2700 1003 2700 1694 
z
" id="LiberationSans-6f" transform="scale(0.015625)"/>
      </defs>
      <use xlink:href="#LiberationSans-42"/>
      <use x="66.699219" xlink:href="#LiberationSans-50"/>
      <use x="133.398438" xlink:href="#LiberationSans-56"/>
      <use x="200.097656" xlink:href="#LiberationSans-20"/>
      <use x="227.880859" xlink:href="#LiberationSans-62"/>
      <use x="283.496094" xlink:href="#LiberationSans-6f"/>
      <use x="339.111328" xlink:href="#LiberationSans-74"/>
      <use x="366.894531" xlink:href="#LiberationSans-74"/>
      <use x="394.677734" xlink:href="#LiberationSans-6f"/>
      <use x="450.292969" xlink:href="#LiberationSans-6d"/>
     </g>
    </g>
    <g id="line2d_27">
     <path d="M 159.411875 227.64375 
L 183.411875 227.64375 
" style="fill:none;stroke:#8172b3;stroke-linecap:round;stroke-width:1.75;"/>
    </g>
    <g id="line2d_28"/>
    <g id="text_20">
     <!-- BPV top -->
     <g style="fill:#262626;" transform="translate(193.011875 231.84375)scale(0.12 -0.12)">
      <defs>
       <path d="M 3291 1706 
Q 3291 -63 2047 -63 
Q 1266 -63 997 525 
L 981 525 
Q 994 500 994 -6 
L 994 -1328 
L 431 -1328 
L 431 2691 
Q 431 3213 413 3381 
L 956 3381 
Q 959 3369 965 3292 
Q 972 3216 980 3056 
Q 988 2897 988 2838 
L 1000 2838 
Q 1150 3150 1397 3295 
Q 1644 3441 2047 3441 
Q 2672 3441 2981 3022 
Q 3291 2603 3291 1706 
z
M 2700 1694 
Q 2700 2400 2509 2703 
Q 2319 3006 1903 3006 
Q 1569 3006 1380 2865 
Q 1191 2725 1092 2426 
Q 994 2128 994 1650 
Q 994 984 1206 668 
Q 1419 353 1897 353 
Q 2316 353 2508 661 
Q 2700 969 2700 1694 
z
" id="LiberationSans-70" transform="scale(0.015625)"/>
      </defs>
      <use xlink:href="#LiberationSans-42"/>
      <use x="66.699219" xlink:href="#LiberationSans-50"/>
      <use x="133.398438" xlink:href="#LiberationSans-56"/>
      <use x="200.097656" xlink:href="#LiberationSans-20"/>
      <use x="227.880859" xlink:href="#LiberationSans-74"/>
      <use x="255.664062" xlink:href="#LiberationSans-6f"/>
      <use x="311.279297" xlink:href="#LiberationSans-70"/>
     </g>
    </g>
   </g>
  </g>
 </g>
 <defs>
  <clipPath id="pc159259cb0">
   <rect height="217.44" width="223.2" x="44.64125" y="27.69375"/>
  </clipPath>
 </defs>
</svg>
