<?xml version="1.0" encoding="utf-8" standalone="no"?>
<!DOCTYPE svg PUBLIC "-//W3C//DTD SVG 1.1//EN"
  "http://www.w3.org/Graphics/SVG/1.1/DTD/svg11.dtd">
<svg height="504.875pt" version="1.1" viewBox="0 0 275.04125 504.875" width="275.04125pt" xmlns="http://www.w3.org/2000/svg" xmlns:xlink="http://www.w3.org/1999/xlink">
 <metadata>
  <rdf:RDF xmlns:cc="http://creativecommons.org/ns#" xmlns:dc="http://purl.org/dc/elements/1.1/" xmlns:rdf="http://www.w3.org/1999/02/22-rdf-syntax-ns#">
   <cc:Work>
    <dc:type rdf:resource="http://purl.org/dc/dcmitype/StillImage"/>
    <dc:date>2023-08-18T15:01:38.823142</dc:date>
    <dc:format>image/svg+xml</dc:format>
    <dc:creator>
     <cc:Agent>
      <dc:title>Matplotlib v3.4.3, https://matplotlib.org/</dc:title>
     </cc:Agent>
    </dc:creator>
   </cc:Work>
  </rdf:RDF>
 </metadata>
 <defs>
  <style type="text/css">*{stroke-linecap:butt;stroke-linejoin:round;}</style>
 </defs>
 <g id="figure_1">
  <g id="patch_1">
   <path d="M 0 504.875 
L 275.04125 504.875 
L 275.04125 0 
L 0 0 
z
" style="fill:none;"/>
  </g>
  <g id="axes_1">
   <g id="patch_2">
    <path d="M 44.64125 462.57375 
L 267.84125 462.57375 
L 267.84125 27.69375 
L 44.64125 27.69375 
z
" style="fill:#eaeaf2;"/>
   </g>
   <g id="matplotlib.axis_1">
    <g id="xtick_1">
     <g id="line2d_1"/>
     <g id="text_1">
      <!-- 46.6 -->
      <g style="fill:#262626;" transform="translate(49.819956 476.994687)scale(0.13 -0.13)">
       <defs>
        <path d="M 2753 997 
L 2753 0 
L 2222 0 
L 2222 997 
L 147 997 
L 147 1434 
L 2163 4403 
L 2753 4403 
L 2753 1441 
L 3372 1441 
L 3372 997 
L 2753 997 
z
M 2222 3769 
Q 2216 3750 2134 3603 
Q 2053 3456 2013 3397 
L 884 1734 
L 716 1503 
L 666 1441 
L 2222 1441 
L 2222 3769 
z
" id="LiberationSans-34" transform="scale(0.015625)"/>
        <path d="M 3278 1441 
Q 3278 744 2900 340 
Q 2522 -63 1856 -63 
Q 1113 -63 719 490 
Q 325 1044 325 2100 
Q 325 3244 734 3856 
Q 1144 4469 1900 4469 
Q 2897 4469 3156 3572 
L 2619 3475 
Q 2453 4013 1894 4013 
Q 1413 4013 1148 3564 
Q 884 3116 884 2266 
Q 1038 2550 1316 2698 
Q 1594 2847 1953 2847 
Q 2563 2847 2920 2465 
Q 3278 2084 3278 1441 
z
M 2706 1416 
Q 2706 1894 2472 2153 
Q 2238 2413 1819 2413 
Q 1425 2413 1183 2183 
Q 941 1953 941 1550 
Q 941 1041 1192 716 
Q 1444 391 1838 391 
Q 2244 391 2475 664 
Q 2706 938 2706 1416 
z
" id="LiberationSans-36" transform="scale(0.015625)"/>
        <path d="M 584 0 
L 584 684 
L 1194 684 
L 1194 0 
L 584 0 
z
" id="LiberationSans-2e" transform="scale(0.015625)"/>
       </defs>
       <use xlink:href="#LiberationSans-34"/>
       <use x="55.615234" xlink:href="#LiberationSans-36"/>
       <use x="111.230469" xlink:href="#LiberationSans-2e"/>
       <use x="139.013672" xlink:href="#LiberationSans-36"/>
      </g>
     </g>
    </g>
    <g id="xtick_2">
     <g id="line2d_2"/>
     <g id="text_2">
      <!-- 46.8 -->
      <g style="fill:#262626;" transform="translate(127.690862 476.994687)scale(0.13 -0.13)">
       <defs>
        <path d="M 3281 1228 
Q 3281 619 2893 278 
Q 2506 -63 1781 -63 
Q 1075 -63 676 271 
Q 278 606 278 1222 
Q 278 1653 525 1947 
Q 772 2241 1156 2303 
L 1156 2316 
Q 797 2400 589 2681 
Q 381 2963 381 3341 
Q 381 3844 757 4156 
Q 1134 4469 1769 4469 
Q 2419 4469 2795 4162 
Q 3172 3856 3172 3334 
Q 3172 2956 2962 2675 
Q 2753 2394 2391 2322 
L 2391 2309 
Q 2813 2241 3047 1952 
Q 3281 1663 3281 1228 
z
M 2588 3303 
Q 2588 4050 1769 4050 
Q 1372 4050 1164 3862 
Q 956 3675 956 3303 
Q 956 2925 1170 2726 
Q 1384 2528 1775 2528 
Q 2172 2528 2380 2711 
Q 2588 2894 2588 3303 
z
M 2697 1281 
Q 2697 1691 2453 1898 
Q 2209 2106 1769 2106 
Q 1341 2106 1100 1882 
Q 859 1659 859 1269 
Q 859 359 1788 359 
Q 2247 359 2472 579 
Q 2697 800 2697 1281 
z
" id="LiberationSans-38" transform="scale(0.015625)"/>
       </defs>
       <use xlink:href="#LiberationSans-34"/>
       <use x="55.615234" xlink:href="#LiberationSans-36"/>
       <use x="111.230469" xlink:href="#LiberationSans-2e"/>
       <use x="139.013672" xlink:href="#LiberationSans-38"/>
      </g>
     </g>
    </g>
    <g id="xtick_3">
     <g id="line2d_3"/>
     <g id="text_3">
      <!-- 47.0 -->
      <g style="fill:#262626;" transform="translate(205.561767 476.994687)scale(0.13 -0.13)">
       <defs>
        <path d="M 3238 3947 
Q 2563 2916 2284 2331 
Q 2006 1747 1867 1178 
Q 1728 609 1728 0 
L 1141 0 
Q 1141 844 1498 1776 
Q 1856 2709 2694 3925 
L 328 3925 
L 328 4403 
L 3238 4403 
L 3238 3947 
z
" id="LiberationSans-37" transform="scale(0.015625)"/>
        <path d="M 3309 2203 
Q 3309 1100 2920 518 
Q 2531 -63 1772 -63 
Q 1013 -63 631 515 
Q 250 1094 250 2203 
Q 250 3338 620 3903 
Q 991 4469 1791 4469 
Q 2569 4469 2939 3897 
Q 3309 3325 3309 2203 
z
M 2738 2203 
Q 2738 3156 2517 3584 
Q 2297 4013 1791 4013 
Q 1272 4013 1045 3591 
Q 819 3169 819 2203 
Q 819 1266 1048 831 
Q 1278 397 1778 397 
Q 2275 397 2506 840 
Q 2738 1284 2738 2203 
z
" id="LiberationSans-30" transform="scale(0.015625)"/>
       </defs>
       <use xlink:href="#LiberationSans-34"/>
       <use x="55.615234" xlink:href="#LiberationSans-37"/>
       <use x="111.230469" xlink:href="#LiberationSans-2e"/>
       <use x="139.013672" xlink:href="#LiberationSans-30"/>
      </g>
     </g>
    </g>
    <g id="text_4">
     <!-- x (nm) -->
     <g style="fill:#262626;" transform="translate(134.995156 494.5625)scale(0.15 -0.15)">
      <defs>
       <path d="M 2503 0 
L 1594 1388 
L 678 0 
L 72 0 
L 1275 1738 
L 128 3381 
L 750 3381 
L 1594 2066 
L 2431 3381 
L 3059 3381 
L 1913 1744 
L 3131 0 
L 2503 0 
z
" id="LiberationSans-78" transform="scale(0.015625)"/>
       <path id="LiberationSans-20" transform="scale(0.015625)"/>
       <path d="M 397 1663 
Q 397 2566 680 3284 
Q 963 4003 1550 4638 
L 2094 4638 
Q 1509 3988 1236 3256 
Q 963 2525 963 1656 
Q 963 791 1233 62 
Q 1503 -666 2094 -1325 
L 1550 -1325 
Q 959 -688 678 32 
Q 397 753 397 1650 
L 397 1663 
z
" id="LiberationSans-28" transform="scale(0.015625)"/>
       <path d="M 2578 0 
L 2578 2144 
Q 2578 2478 2512 2662 
Q 2447 2847 2303 2928 
Q 2159 3009 1881 3009 
Q 1475 3009 1240 2731 
Q 1006 2453 1006 1959 
L 1006 0 
L 444 0 
L 444 2659 
Q 444 3250 425 3381 
L 956 3381 
Q 959 3366 962 3297 
Q 966 3228 970 3139 
Q 975 3050 981 2803 
L 991 2803 
Q 1184 3153 1439 3298 
Q 1694 3444 2072 3444 
Q 2628 3444 2886 3167 
Q 3144 2891 3144 2253 
L 3144 0 
L 2578 0 
z
" id="LiberationSans-6e" transform="scale(0.015625)"/>
       <path d="M 2400 0 
L 2400 2144 
Q 2400 2634 2265 2821 
Q 2131 3009 1781 3009 
Q 1422 3009 1212 2734 
Q 1003 2459 1003 1959 
L 1003 0 
L 444 0 
L 444 2659 
Q 444 3250 425 3381 
L 956 3381 
Q 959 3366 962 3297 
Q 966 3228 970 3139 
Q 975 3050 981 2803 
L 991 2803 
Q 1172 3163 1406 3303 
Q 1641 3444 1978 3444 
Q 2363 3444 2586 3291 
Q 2809 3138 2897 2803 
L 2906 2803 
Q 3081 3144 3329 3294 
Q 3578 3444 3931 3444 
Q 4444 3444 4676 3166 
Q 4909 2888 4909 2253 
L 4909 0 
L 4353 0 
L 4353 2144 
Q 4353 2634 4218 2821 
Q 4084 3009 3734 3009 
Q 3366 3009 3161 2736 
Q 2956 2463 2956 1959 
L 2956 0 
L 2400 0 
z
" id="LiberationSans-6d" transform="scale(0.015625)"/>
       <path d="M 1734 1650 
Q 1734 747 1451 28 
Q 1169 -691 581 -1325 
L 38 -1325 
Q 625 -669 897 57 
Q 1169 784 1169 1656 
Q 1169 2528 895 3256 
Q 622 3984 38 4638 
L 581 4638 
Q 1172 4000 1453 3279 
Q 1734 2559 1734 1663 
L 1734 1650 
z
" id="LiberationSans-29" transform="scale(0.015625)"/>
      </defs>
      <use xlink:href="#LiberationSans-78"/>
      <use x="50" xlink:href="#LiberationSans-20"/>
      <use x="77.783203" xlink:href="#LiberationSans-28"/>
      <use x="111.083984" xlink:href="#LiberationSans-6e"/>
      <use x="166.699219" xlink:href="#LiberationSans-6d"/>
      <use x="250" xlink:href="#LiberationSans-29"/>
     </g>
    </g>
   </g>
   <g id="matplotlib.axis_2">
    <g id="ytick_1">
     <g id="line2d_4"/>
     <g id="text_5">
      <!-- 38 -->
      <g style="fill:#262626;" transform="translate(25.182813 421.734067)scale(0.13 -0.13)">
       <defs>
        <path d="M 3278 1216 
Q 3278 606 2890 271 
Q 2503 -63 1784 -63 
Q 1116 -63 717 239 
Q 319 541 244 1131 
L 825 1184 
Q 938 403 1784 403 
Q 2209 403 2451 612 
Q 2694 822 2694 1234 
Q 2694 1594 2417 1795 
Q 2141 1997 1619 1997 
L 1300 1997 
L 1300 2484 
L 1606 2484 
Q 2069 2484 2323 2686 
Q 2578 2888 2578 3244 
Q 2578 3597 2370 3801 
Q 2163 4006 1753 4006 
Q 1381 4006 1151 3815 
Q 922 3625 884 3278 
L 319 3322 
Q 381 3863 767 4166 
Q 1153 4469 1759 4469 
Q 2422 4469 2789 4161 
Q 3156 3853 3156 3303 
Q 3156 2881 2920 2617 
Q 2684 2353 2234 2259 
L 2234 2247 
Q 2728 2194 3003 1916 
Q 3278 1638 3278 1216 
z
" id="LiberationSans-33" transform="scale(0.015625)"/>
       </defs>
       <use xlink:href="#LiberationSans-33"/>
       <use x="55.615234" xlink:href="#LiberationSans-38"/>
      </g>
     </g>
    </g>
    <g id="ytick_2">
     <g id="line2d_5"/>
     <g id="text_6">
      <!-- 40 -->
      <g style="fill:#262626;" transform="translate(25.182813 354.687821)scale(0.13 -0.13)">
       <use xlink:href="#LiberationSans-34"/>
       <use x="55.615234" xlink:href="#LiberationSans-30"/>
      </g>
     </g>
    </g>
    <g id="ytick_3">
     <g id="line2d_6"/>
     <g id="text_7">
      <!-- 42 -->
      <g style="fill:#262626;" transform="translate(25.182813 287.641576)scale(0.13 -0.13)">
       <defs>
        <path d="M 322 0 
L 322 397 
Q 481 763 711 1042 
Q 941 1322 1194 1548 
Q 1447 1775 1695 1969 
Q 1944 2163 2144 2356 
Q 2344 2550 2467 2762 
Q 2591 2975 2591 3244 
Q 2591 3606 2378 3806 
Q 2166 4006 1788 4006 
Q 1428 4006 1195 3811 
Q 963 3616 922 3263 
L 347 3316 
Q 409 3844 795 4156 
Q 1181 4469 1788 4469 
Q 2453 4469 2811 4155 
Q 3169 3841 3169 3263 
Q 3169 3006 3051 2753 
Q 2934 2500 2703 2247 
Q 2472 1994 1819 1463 
Q 1459 1169 1246 933 
Q 1034 697 941 478 
L 3238 478 
L 3238 0 
L 322 0 
z
" id="LiberationSans-32" transform="scale(0.015625)"/>
       </defs>
       <use xlink:href="#LiberationSans-34"/>
       <use x="55.615234" xlink:href="#LiberationSans-32"/>
      </g>
     </g>
    </g>
    <g id="ytick_4">
     <g id="line2d_7"/>
     <g id="text_8">
      <!-- 44 -->
      <g style="fill:#262626;" transform="translate(25.182813 220.59533)scale(0.13 -0.13)">
       <use xlink:href="#LiberationSans-34"/>
       <use x="55.615234" xlink:href="#LiberationSans-34"/>
      </g>
     </g>
    </g>
    <g id="ytick_5">
     <g id="line2d_8"/>
     <g id="text_9">
      <!-- 46 -->
      <g style="fill:#262626;" transform="translate(25.182813 153.549085)scale(0.13 -0.13)">
       <use xlink:href="#LiberationSans-34"/>
       <use x="55.615234" xlink:href="#LiberationSans-36"/>
      </g>
     </g>
    </g>
    <g id="ytick_6">
     <g id="line2d_9"/>
     <g id="text_10">
      <!-- 48 -->
      <g style="fill:#262626;" transform="translate(25.182813 86.502839)scale(0.13 -0.13)">
       <use xlink:href="#LiberationSans-34"/>
       <use x="55.615234" xlink:href="#LiberationSans-38"/>
      </g>
     </g>
    </g>
    <g id="text_11">
     <!-- y (nm) -->
     <g style="fill:#262626;" transform="translate(18.070312 266.379844)rotate(-90)scale(0.15 -0.15)">
      <defs>
       <path d="M 597 -1328 
Q 366 -1328 209 -1294 
L 209 -872 
Q 328 -891 472 -891 
Q 997 -891 1303 -119 
L 1356 16 
L 16 3381 
L 616 3381 
L 1328 1513 
Q 1344 1469 1366 1408 
Q 1388 1347 1506 1000 
Q 1625 653 1634 613 
L 1853 1228 
L 2594 3381 
L 3188 3381 
L 1888 0 
Q 1678 -541 1497 -805 
Q 1316 -1069 1095 -1198 
Q 875 -1328 597 -1328 
z
" id="LiberationSans-79" transform="scale(0.015625)"/>
      </defs>
      <use xlink:href="#LiberationSans-79"/>
      <use x="50" xlink:href="#LiberationSans-20"/>
      <use x="77.783203" xlink:href="#LiberationSans-28"/>
      <use x="111.083984" xlink:href="#LiberationSans-6e"/>
      <use x="166.699219" xlink:href="#LiberationSans-6d"/>
      <use x="250" xlink:href="#LiberationSans-29"/>
     </g>
    </g>
   </g>
   <g id="line2d_10">
    <path clip-path="url(#p22e19b160d)" d="M 70.925423 442.806477 
L 62.030437 425.049526 
L 54.786705 365.243544 
L 124.062214 294.362324 
L 202.626709 222.424571 
L 257.695795 168.355714 
L 249.311472 116.527885 
L 244.883005 90.290296 
L 189.446843 59.488976 
L 144.21786 48.760915 
L 115.482048 47.461023 
L 92.540896 52.505642 
L 80.910087 58.706892 
L 86.500911 65.734543 
L 101.586793 79.16082 
L 139.681592 104.036462 
L 160.406615 118.918591 
L 157.531364 126.228019 
L 146.643227 128.554972 
L 134.592524 129.343748 
L 125.252793 128.819599 
L 123.635735 126.470167 
L 130.620253 123.378716 
L 141.408196 121.072828 
L 149.85477 120.075659 
L 152.698234 120.062471 
L 149.914757 120.587771 
L 143.382325 121.346705 
L 135.753343 122.09007 
L 129.576147 122.619835 
L 126.493349 122.865865 
L 126.817348 122.884971 
L 129.705321 122.781188 
L 133.733838 122.639454 
L 137.505543 122.508671 
L 140.057251 122.409334 
L 141.018501 122.342925 
L 140.557758 122.300886 
L 139.187753 122.274075 
L 137.522465 122.258634 
L 136.074408 122.255638 
L 135.143864 122.267053 
L 134.804082 122.292125 
L 134.954398 122.326216 
L 135.403273 122.36188 
L 135.948172 122.391184 
L 136.431198 122.408184 
" style="fill:none;stroke:#4c72b0;stroke-dasharray:6.475,2.8;stroke-dashoffset:0;stroke-width:1.75;"/>
    <defs>
     <path d="M 0 3.5 
C 0.928211 3.5 1.81853 3.131218 2.474874 2.474874 
C 3.131218 1.81853 3.5 0.928211 3.5 0 
C 3.5 -0.928211 3.131218 -1.81853 2.474874 -2.474874 
C 1.81853 -3.131218 0.928211 -3.5 0 -3.5 
C -0.928211 -3.5 -1.81853 -3.131218 -2.474874 -2.474874 
C -3.131218 -1.81853 -3.5 -0.928211 -3.5 0 
C -3.5 0.928211 -3.131218 1.81853 -2.474874 2.474874 
C -1.81853 3.131218 -0.928211 3.5 0 3.5 
z
" id="m0060deffb4"/>
    </defs>
    <g clip-path="url(#p22e19b160d)">
     <use style="fill:#4c72b0;" x="70.925423" xlink:href="#m0060deffb4" y="442.806477"/>
     <use style="fill:#4c72b0;" x="62.030437" xlink:href="#m0060deffb4" y="425.049526"/>
     <use style="fill:#4c72b0;" x="54.786705" xlink:href="#m0060deffb4" y="365.243544"/>
     <use style="fill:#4c72b0;" x="124.062214" xlink:href="#m0060deffb4" y="294.362324"/>
     <use style="fill:#4c72b0;" x="202.626709" xlink:href="#m0060deffb4" y="222.424571"/>
     <use style="fill:#4c72b0;" x="257.695795" xlink:href="#m0060deffb4" y="168.355714"/>
     <use style="fill:#4c72b0;" x="249.311472" xlink:href="#m0060deffb4" y="116.527885"/>
     <use style="fill:#4c72b0;" x="244.883005" xlink:href="#m0060deffb4" y="90.290296"/>
     <use style="fill:#4c72b0;" x="189.446843" xlink:href="#m0060deffb4" y="59.488976"/>
     <use style="fill:#4c72b0;" x="144.21786" xlink:href="#m0060deffb4" y="48.760915"/>
     <use style="fill:#4c72b0;" x="115.482048" xlink:href="#m0060deffb4" y="47.461023"/>
     <use style="fill:#4c72b0;" x="92.540896" xlink:href="#m0060deffb4" y="52.505642"/>
     <use style="fill:#4c72b0;" x="80.910087" xlink:href="#m0060deffb4" y="58.706892"/>
     <use style="fill:#4c72b0;" x="86.500911" xlink:href="#m0060deffb4" y="65.734543"/>
     <use style="fill:#4c72b0;" x="101.586793" xlink:href="#m0060deffb4" y="79.16082"/>
     <use style="fill:#4c72b0;" x="139.681592" xlink:href="#m0060deffb4" y="104.036462"/>
     <use style="fill:#4c72b0;" x="160.406615" xlink:href="#m0060deffb4" y="118.918591"/>
     <use style="fill:#4c72b0;" x="157.531364" xlink:href="#m0060deffb4" y="126.228019"/>
     <use style="fill:#4c72b0;" x="146.643227" xlink:href="#m0060deffb4" y="128.554972"/>
     <use style="fill:#4c72b0;" x="134.592524" xlink:href="#m0060deffb4" y="129.343748"/>
     <use style="fill:#4c72b0;" x="125.252793" xlink:href="#m0060deffb4" y="128.819599"/>
     <use style="fill:#4c72b0;" x="123.635735" xlink:href="#m0060deffb4" y="126.470167"/>
     <use style="fill:#4c72b0;" x="130.620253" xlink:href="#m0060deffb4" y="123.378716"/>
     <use style="fill:#4c72b0;" x="141.408196" xlink:href="#m0060deffb4" y="121.072828"/>
     <use style="fill:#4c72b0;" x="149.85477" xlink:href="#m0060deffb4" y="120.075659"/>
     <use style="fill:#4c72b0;" x="152.698234" xlink:href="#m0060deffb4" y="120.062471"/>
     <use style="fill:#4c72b0;" x="149.914757" xlink:href="#m0060deffb4" y="120.587771"/>
     <use style="fill:#4c72b0;" x="143.382325" xlink:href="#m0060deffb4" y="121.346705"/>
     <use style="fill:#4c72b0;" x="135.753343" xlink:href="#m0060deffb4" y="122.09007"/>
     <use style="fill:#4c72b0;" x="129.576147" xlink:href="#m0060deffb4" y="122.619835"/>
     <use style="fill:#4c72b0;" x="126.493349" xlink:href="#m0060deffb4" y="122.865865"/>
     <use style="fill:#4c72b0;" x="126.817348" xlink:href="#m0060deffb4" y="122.884971"/>
     <use style="fill:#4c72b0;" x="129.705321" xlink:href="#m0060deffb4" y="122.781188"/>
     <use style="fill:#4c72b0;" x="133.733838" xlink:href="#m0060deffb4" y="122.639454"/>
     <use style="fill:#4c72b0;" x="137.505543" xlink:href="#m0060deffb4" y="122.508671"/>
     <use style="fill:#4c72b0;" x="140.057251" xlink:href="#m0060deffb4" y="122.409334"/>
     <use style="fill:#4c72b0;" x="141.018501" xlink:href="#m0060deffb4" y="122.342925"/>
     <use style="fill:#4c72b0;" x="140.557758" xlink:href="#m0060deffb4" y="122.300886"/>
     <use style="fill:#4c72b0;" x="139.187753" xlink:href="#m0060deffb4" y="122.274075"/>
     <use style="fill:#4c72b0;" x="137.522465" xlink:href="#m0060deffb4" y="122.258634"/>
     <use style="fill:#4c72b0;" x="136.074408" xlink:href="#m0060deffb4" y="122.255638"/>
     <use style="fill:#4c72b0;" x="135.143864" xlink:href="#m0060deffb4" y="122.267053"/>
     <use style="fill:#4c72b0;" x="134.804082" xlink:href="#m0060deffb4" y="122.292125"/>
     <use style="fill:#4c72b0;" x="134.954398" xlink:href="#m0060deffb4" y="122.326216"/>
     <use style="fill:#4c72b0;" x="135.403273" xlink:href="#m0060deffb4" y="122.36188"/>
     <use style="fill:#4c72b0;" x="135.948172" xlink:href="#m0060deffb4" y="122.391184"/>
     <use style="fill:#4c72b0;" x="136.431198" xlink:href="#m0060deffb4" y="122.408184"/>
    </g>
   </g>
   <g id="patch_3">
    <path d="M 44.64125 462.57375 
L 44.64125 27.69375 
" style="fill:none;"/>
   </g>
   <g id="patch_4">
    <path d="M 267.84125 462.57375 
L 267.84125 27.69375 
" style="fill:none;"/>
   </g>
   <g id="patch_5">
    <path d="M 44.64125 462.57375 
L 267.84125 462.57375 
" style="fill:none;"/>
   </g>
   <g id="patch_6">
    <path d="M 44.64125 27.69375 
L 267.84125 27.69375 
" style="fill:none;"/>
   </g>
   <g id="text_12">
    <!-- BP movement -->
    <g style="fill:#262626;" transform="translate(93.61625 21.69375)scale(0.2 -0.2)">
     <defs>
      <path d="M 3931 1241 
Q 3931 653 3503 326 
Q 3075 0 2313 0 
L 525 0 
L 525 4403 
L 2125 4403 
Q 3675 4403 3675 3334 
Q 3675 2944 3456 2678 
Q 3238 2413 2838 2322 
Q 3363 2259 3647 1970 
Q 3931 1681 3931 1241 
z
M 3075 3263 
Q 3075 3619 2831 3772 
Q 2588 3925 2125 3925 
L 1122 3925 
L 1122 2531 
L 2125 2531 
Q 2603 2531 2839 2711 
Q 3075 2891 3075 3263 
z
M 3328 1288 
Q 3328 2066 2234 2066 
L 1122 2066 
L 1122 478 
L 2281 478 
Q 2828 478 3078 681 
Q 3328 884 3328 1288 
z
" id="LiberationSans-42" transform="scale(0.015625)"/>
      <path d="M 3931 3078 
Q 3931 2453 3523 2084 
Q 3116 1716 2416 1716 
L 1122 1716 
L 1122 0 
L 525 0 
L 525 4403 
L 2378 4403 
Q 3119 4403 3525 4056 
Q 3931 3709 3931 3078 
z
M 3331 3072 
Q 3331 3925 2306 3925 
L 1122 3925 
L 1122 2188 
L 2331 2188 
Q 3331 2188 3331 3072 
z
" id="LiberationSans-50" transform="scale(0.015625)"/>
      <path d="M 3291 1694 
Q 3291 806 2900 371 
Q 2509 -63 1766 -63 
Q 1025 -63 647 389 
Q 269 841 269 1694 
Q 269 3444 1784 3444 
Q 2559 3444 2925 3017 
Q 3291 2591 3291 1694 
z
M 2700 1694 
Q 2700 2394 2492 2711 
Q 2284 3028 1794 3028 
Q 1300 3028 1079 2704 
Q 859 2381 859 1694 
Q 859 1025 1076 689 
Q 1294 353 1759 353 
Q 2266 353 2483 678 
Q 2700 1003 2700 1694 
z
" id="LiberationSans-6f" transform="scale(0.015625)"/>
      <path d="M 1916 0 
L 1250 0 
L 22 3381 
L 622 3381 
L 1366 1181 
Q 1406 1056 1581 441 
L 1691 806 
L 1813 1175 
L 2581 3381 
L 3178 3381 
L 1916 0 
z
" id="LiberationSans-76" transform="scale(0.015625)"/>
      <path d="M 863 1572 
Q 863 991 1103 675 
Q 1344 359 1806 359 
Q 2172 359 2392 506 
Q 2613 653 2691 878 
L 3184 738 
Q 2881 -63 1806 -63 
Q 1056 -63 664 384 
Q 272 831 272 1713 
Q 272 2550 664 2997 
Q 1056 3444 1784 3444 
Q 3275 3444 3275 1647 
L 3275 1572 
L 863 1572 
z
M 2694 2003 
Q 2647 2538 2422 2783 
Q 2197 3028 1775 3028 
Q 1366 3028 1127 2754 
Q 888 2481 869 2003 
L 2694 2003 
z
" id="LiberationSans-65" transform="scale(0.015625)"/>
      <path d="M 1731 25 
Q 1453 -50 1163 -50 
Q 488 -50 488 716 
L 488 2972 
L 97 2972 
L 97 3381 
L 509 3381 
L 675 4138 
L 1050 4138 
L 1050 3381 
L 1675 3381 
L 1675 2972 
L 1050 2972 
L 1050 838 
Q 1050 594 1129 495 
Q 1209 397 1406 397 
Q 1519 397 1731 441 
L 1731 25 
z
" id="LiberationSans-74" transform="scale(0.015625)"/>
     </defs>
     <use xlink:href="#LiberationSans-42"/>
     <use x="66.699219" xlink:href="#LiberationSans-50"/>
     <use x="131.648438" xlink:href="#LiberationSans-20"/>
     <use x="159.431641" xlink:href="#LiberationSans-6d"/>
     <use x="242.732422" xlink:href="#LiberationSans-6f"/>
     <use x="298.347656" xlink:href="#LiberationSans-76"/>
     <use x="348.347656" xlink:href="#LiberationSans-65"/>
     <use x="403.962891" xlink:href="#LiberationSans-6d"/>
     <use x="487.263672" xlink:href="#LiberationSans-65"/>
     <use x="542.878906" xlink:href="#LiberationSans-6e"/>
     <use x="598.494141" xlink:href="#LiberationSans-74"/>
    </g>
   </g>
  </g>
 </g>
 <defs>
  <clipPath id="p22e19b160d">
   <rect height="434.88" width="223.2" x="44.64125" y="27.69375"/>
  </clipPath>
 </defs>
</svg>
