<?xml version="1.0" encoding="utf-8" standalone="no"?>
<!DOCTYPE svg PUBLIC "-//W3C//DTD SVG 1.1//EN"
  "http://www.w3.org/Graphics/SVG/1.1/DTD/svg11.dtd">
<svg height="345.368437pt" version="1.1" viewBox="0 0 346.713288 345.368437" width="346.713288pt" xmlns="http://www.w3.org/2000/svg" xmlns:xlink="http://www.w3.org/1999/xlink">
 <metadata>
  <rdf:RDF xmlns:cc="http://creativecommons.org/ns#" xmlns:dc="http://purl.org/dc/elements/1.1/" xmlns:rdf="http://www.w3.org/1999/02/22-rdf-syntax-ns#">
   <cc:Work>
    <dc:type rdf:resource="http://purl.org/dc/dcmitype/StillImage"/>
    <dc:date>2023-09-22T14:05:04.535225</dc:date>
    <dc:format>image/svg+xml</dc:format>
    <dc:creator>
     <cc:Agent>
      <dc:title>Matplotlib v3.4.3, https://matplotlib.org/</dc:title>
     </cc:Agent>
    </dc:creator>
   </cc:Work>
  </rdf:RDF>
 </metadata>
 <defs>
  <style type="text/css">*{stroke-linecap:butt;stroke-linejoin:round;}</style>
 </defs>
 <g id="figure_1">
  <g id="patch_1">
   <path d="M -0 345.368437 
L 346.713288 345.368437 
L 346.713288 0 
L -0 0 
z
" style="fill:#ffffff;"/>
  </g>
  <g id="axes_1">
   <g id="patch_2">
    <path d="M 52.587656 300.4 
L 331.587656 300.4 
L 331.587656 28.6 
L 52.587656 28.6 
z
" style="fill:#eaeaf2;"/>
   </g>
   <g id="matplotlib.axis_1">
    <g id="xtick_1">
     <g id="line2d_1">
      <path clip-path="url(#pb4b76dca3d)" d="M 79.621065 300.4 
L 79.621065 28.6 
" style="fill:none;stroke:#ffffff;stroke-linecap:round;"/>
     </g>
     <g id="line2d_2"/>
     <g id="text_1">
      <!-- 0.50 -->
      <g style="fill:#262626;" transform="translate(66.971456 314.820937)scale(0.13 -0.13)">
       <defs>
        <path d="M 3309 2203 
Q 3309 1100 2920 518 
Q 2531 -63 1772 -63 
Q 1013 -63 631 515 
Q 250 1094 250 2203 
Q 250 3338 620 3903 
Q 991 4469 1791 4469 
Q 2569 4469 2939 3897 
Q 3309 3325 3309 2203 
z
M 2738 2203 
Q 2738 3156 2517 3584 
Q 2297 4013 1791 4013 
Q 1272 4013 1045 3591 
Q 819 3169 819 2203 
Q 819 1266 1048 831 
Q 1278 397 1778 397 
Q 2275 397 2506 840 
Q 2738 1284 2738 2203 
z
" id="LiberationSans-30" transform="scale(0.015625)"/>
        <path d="M 584 0 
L 584 684 
L 1194 684 
L 1194 0 
L 584 0 
z
" id="LiberationSans-2e" transform="scale(0.015625)"/>
        <path d="M 3291 1434 
Q 3291 738 2877 337 
Q 2463 -63 1728 -63 
Q 1113 -63 734 206 
Q 356 475 256 984 
L 825 1050 
Q 1003 397 1741 397 
Q 2194 397 2450 670 
Q 2706 944 2706 1422 
Q 2706 1838 2448 2094 
Q 2191 2350 1753 2350 
Q 1525 2350 1328 2278 
Q 1131 2206 934 2034 
L 384 2034 
L 531 4403 
L 3034 4403 
L 3034 3925 
L 1044 3925 
L 959 2528 
Q 1325 2809 1869 2809 
Q 2519 2809 2905 2428 
Q 3291 2047 3291 1434 
z
" id="LiberationSans-35" transform="scale(0.015625)"/>
       </defs>
       <use xlink:href="#LiberationSans-30"/>
       <use x="55.615234" xlink:href="#LiberationSans-2e"/>
       <use x="83.398438" xlink:href="#LiberationSans-35"/>
       <use x="139.013672" xlink:href="#LiberationSans-30"/>
      </g>
     </g>
    </g>
    <g id="xtick_2">
     <g id="line2d_3">
      <path clip-path="url(#pb4b76dca3d)" d="M 129.069588 300.4 
L 129.069588 28.6 
" style="fill:none;stroke:#ffffff;stroke-linecap:round;"/>
     </g>
     <g id="line2d_4"/>
     <g id="text_2">
      <!-- 0.75 -->
      <g style="fill:#262626;" transform="translate(116.419979 314.820937)scale(0.13 -0.13)">
       <defs>
        <path d="M 3238 3947 
Q 2563 2916 2284 2331 
Q 2006 1747 1867 1178 
Q 1728 609 1728 0 
L 1141 0 
Q 1141 844 1498 1776 
Q 1856 2709 2694 3925 
L 328 3925 
L 328 4403 
L 3238 4403 
L 3238 3947 
z
" id="LiberationSans-37" transform="scale(0.015625)"/>
       </defs>
       <use xlink:href="#LiberationSans-30"/>
       <use x="55.615234" xlink:href="#LiberationSans-2e"/>
       <use x="83.398438" xlink:href="#LiberationSans-37"/>
       <use x="139.013672" xlink:href="#LiberationSans-35"/>
      </g>
     </g>
    </g>
    <g id="xtick_3">
     <g id="line2d_5">
      <path clip-path="url(#pb4b76dca3d)" d="M 178.518111 300.4 
L 178.518111 28.6 
" style="fill:none;stroke:#ffffff;stroke-linecap:round;"/>
     </g>
     <g id="line2d_6"/>
     <g id="text_3">
      <!-- 1.00 -->
      <g style="fill:#262626;" transform="translate(165.868501 314.820937)scale(0.13 -0.13)">
       <defs>
        <path d="M 488 0 
L 488 478 
L 1609 478 
L 1609 3866 
L 616 3156 
L 616 3688 
L 1656 4403 
L 2175 4403 
L 2175 478 
L 3247 478 
L 3247 0 
L 488 0 
z
" id="LiberationSans-31" transform="scale(0.015625)"/>
       </defs>
       <use xlink:href="#LiberationSans-31"/>
       <use x="55.615234" xlink:href="#LiberationSans-2e"/>
       <use x="83.398438" xlink:href="#LiberationSans-30"/>
       <use x="139.013672" xlink:href="#LiberationSans-30"/>
      </g>
     </g>
    </g>
    <g id="xtick_4">
     <g id="line2d_7">
      <path clip-path="url(#pb4b76dca3d)" d="M 227.966634 300.4 
L 227.966634 28.6 
" style="fill:none;stroke:#ffffff;stroke-linecap:round;"/>
     </g>
     <g id="line2d_8"/>
     <g id="text_4">
      <!-- 1.25 -->
      <g style="fill:#262626;" transform="translate(215.317024 314.820937)scale(0.13 -0.13)">
       <defs>
        <path d="M 322 0 
L 322 397 
Q 481 763 711 1042 
Q 941 1322 1194 1548 
Q 1447 1775 1695 1969 
Q 1944 2163 2144 2356 
Q 2344 2550 2467 2762 
Q 2591 2975 2591 3244 
Q 2591 3606 2378 3806 
Q 2166 4006 1788 4006 
Q 1428 4006 1195 3811 
Q 963 3616 922 3263 
L 347 3316 
Q 409 3844 795 4156 
Q 1181 4469 1788 4469 
Q 2453 4469 2811 4155 
Q 3169 3841 3169 3263 
Q 3169 3006 3051 2753 
Q 2934 2500 2703 2247 
Q 2472 1994 1819 1463 
Q 1459 1169 1246 933 
Q 1034 697 941 478 
L 3238 478 
L 3238 0 
L 322 0 
z
" id="LiberationSans-32" transform="scale(0.015625)"/>
       </defs>
       <use xlink:href="#LiberationSans-31"/>
       <use x="55.615234" xlink:href="#LiberationSans-2e"/>
       <use x="83.398438" xlink:href="#LiberationSans-32"/>
       <use x="139.013672" xlink:href="#LiberationSans-35"/>
      </g>
     </g>
    </g>
    <g id="xtick_5">
     <g id="line2d_9">
      <path clip-path="url(#pb4b76dca3d)" d="M 277.415156 300.4 
L 277.415156 28.6 
" style="fill:none;stroke:#ffffff;stroke-linecap:round;"/>
     </g>
     <g id="line2d_10"/>
     <g id="text_5">
      <!-- 1.50 -->
      <g style="fill:#262626;" transform="translate(264.765547 314.820937)scale(0.13 -0.13)">
       <use xlink:href="#LiberationSans-31"/>
       <use x="55.615234" xlink:href="#LiberationSans-2e"/>
       <use x="83.398438" xlink:href="#LiberationSans-35"/>
       <use x="139.013672" xlink:href="#LiberationSans-30"/>
      </g>
     </g>
    </g>
    <g id="xtick_6">
     <g id="line2d_11">
      <path clip-path="url(#pb4b76dca3d)" d="M 326.863679 300.4 
L 326.863679 28.6 
" style="fill:none;stroke:#ffffff;stroke-linecap:round;"/>
     </g>
     <g id="line2d_12"/>
     <g id="text_6">
      <!-- 1.75 -->
      <g style="fill:#262626;" transform="translate(314.21407 314.820937)scale(0.13 -0.13)">
       <use xlink:href="#LiberationSans-31"/>
       <use x="55.615234" xlink:href="#LiberationSans-2e"/>
       <use x="83.398438" xlink:href="#LiberationSans-37"/>
       <use x="139.013672" xlink:href="#LiberationSans-35"/>
      </g>
     </g>
    </g>
    <g id="text_7">
     <!-- $d^{-1}$ [1/m] -->
     <g style="fill:#262626;" transform="translate(160.062656 335.018437)scale(0.15 -0.15)">
      <defs>
       <path d="M 2675 525 
Q 2444 222 2128 65 
Q 1813 -91 1428 -91 
Q 903 -91 598 267 
Q 294 625 294 1247 
Q 294 1766 478 2236 
Q 663 2706 1013 3078 
Q 1244 3325 1534 3454 
Q 1825 3584 2144 3584 
Q 2481 3584 2739 3421 
Q 2997 3259 3138 2956 
L 3513 4863 
L 4091 4863 
L 3144 0 
L 2566 0 
L 2675 525 
z
M 891 1350 
Q 891 897 1095 644 
Q 1300 391 1663 391 
Q 1931 391 2161 520 
Q 2391 650 2566 903 
Q 2750 1166 2856 1509 
Q 2963 1853 2963 2188 
Q 2963 2622 2758 2865 
Q 2553 3109 2194 3109 
Q 1922 3109 1687 2981 
Q 1453 2853 1288 2613 
Q 1106 2353 998 2009 
Q 891 1666 891 1350 
z
" id="DejaVuSans-Oblique-64" transform="scale(0.015625)"/>
       <path d="M 678 2272 
L 4684 2272 
L 4684 1741 
L 678 1741 
L 678 2272 
z
" id="DejaVuSans-2212" transform="scale(0.015625)"/>
       <path d="M 794 531 
L 1825 531 
L 1825 4091 
L 703 3866 
L 703 4441 
L 1819 4666 
L 2450 4666 
L 2450 531 
L 3481 531 
L 3481 0 
L 794 0 
L 794 531 
z
" id="DejaVuSans-31" transform="scale(0.015625)"/>
       <path id="LiberationSans-20" transform="scale(0.015625)"/>
       <path d="M 456 -1328 
L 456 4638 
L 1728 4638 
L 1728 4234 
L 1000 4234 
L 1000 -925 
L 1728 -925 
L 1728 -1328 
L 456 -1328 
z
" id="LiberationSans-5b" transform="scale(0.015625)"/>
       <path d="M 0 -63 
L 1284 4638 
L 1778 4638 
L 506 -63 
L 0 -63 
z
" id="LiberationSans-2f" transform="scale(0.015625)"/>
       <path d="M 2400 0 
L 2400 2144 
Q 2400 2634 2265 2821 
Q 2131 3009 1781 3009 
Q 1422 3009 1212 2734 
Q 1003 2459 1003 1959 
L 1003 0 
L 444 0 
L 444 2659 
Q 444 3250 425 3381 
L 956 3381 
Q 959 3366 962 3297 
Q 966 3228 970 3139 
Q 975 3050 981 2803 
L 991 2803 
Q 1172 3163 1406 3303 
Q 1641 3444 1978 3444 
Q 2363 3444 2586 3291 
Q 2809 3138 2897 2803 
L 2906 2803 
Q 3081 3144 3329 3294 
Q 3578 3444 3931 3444 
Q 4444 3444 4676 3166 
Q 4909 2888 4909 2253 
L 4909 0 
L 4353 0 
L 4353 2144 
Q 4353 2634 4218 2821 
Q 4084 3009 3734 3009 
Q 3366 3009 3161 2736 
Q 2956 2463 2956 1959 
L 2956 0 
L 2400 0 
z
" id="LiberationSans-6d" transform="scale(0.015625)"/>
       <path d="M 50 -1328 
L 50 -925 
L 778 -925 
L 778 4234 
L 50 4234 
L 50 4638 
L 1322 4638 
L 1322 -1328 
L 50 -1328 
z
" id="LiberationSans-5d" transform="scale(0.015625)"/>
      </defs>
      <use transform="translate(0 0.684375)" xlink:href="#DejaVuSans-Oblique-64"/>
      <use transform="translate(70.924271 38.965625)scale(0.7)" xlink:href="#DejaVuSans-2212"/>
      <use transform="translate(129.576615 38.965625)scale(0.7)" xlink:href="#DejaVuSans-31"/>
      <use transform="translate(176.847122 0.684375)" xlink:href="#LiberationSans-20"/>
      <use transform="translate(204.630326 0.684375)" xlink:href="#LiberationSans-5b"/>
      <use transform="translate(232.413529 0.684375)" xlink:href="#LiberationSans-31"/>
      <use transform="translate(288.028763 0.684375)" xlink:href="#LiberationSans-2f"/>
      <use transform="translate(315.811966 0.684375)" xlink:href="#LiberationSans-6d"/>
      <use transform="translate(399.112747 0.684375)" xlink:href="#LiberationSans-5d"/>
     </g>
    </g>
    <g id="text_8">
     <!-- 1e9 -->
     <g style="fill:#262626;" transform="translate(309.9 329.939375)scale(0.13 -0.13)">
      <defs>
       <path d="M 863 1572 
Q 863 991 1103 675 
Q 1344 359 1806 359 
Q 2172 359 2392 506 
Q 2613 653 2691 878 
L 3184 738 
Q 2881 -63 1806 -63 
Q 1056 -63 664 384 
Q 272 831 272 1713 
Q 272 2550 664 2997 
Q 1056 3444 1784 3444 
Q 3275 3444 3275 1647 
L 3275 1572 
L 863 1572 
z
M 2694 2003 
Q 2647 2538 2422 2783 
Q 2197 3028 1775 3028 
Q 1366 3028 1127 2754 
Q 888 2481 869 2003 
L 2694 2003 
z
" id="LiberationSans-65" transform="scale(0.015625)"/>
       <path d="M 3256 2291 
Q 3256 1156 2842 546 
Q 2428 -63 1663 -63 
Q 1147 -63 836 154 
Q 525 372 391 856 
L 928 941 
Q 1097 391 1672 391 
Q 2156 391 2422 841 
Q 2688 1291 2700 2125 
Q 2575 1844 2272 1673 
Q 1969 1503 1606 1503 
Q 1013 1503 656 1909 
Q 300 2316 300 2988 
Q 300 3678 687 4073 
Q 1075 4469 1766 4469 
Q 2500 4469 2878 3925 
Q 3256 3381 3256 2291 
z
M 2644 2834 
Q 2644 3366 2400 3689 
Q 2156 4013 1747 4013 
Q 1341 4013 1106 3736 
Q 872 3459 872 2988 
Q 872 2506 1106 2226 
Q 1341 1947 1741 1947 
Q 1984 1947 2193 2058 
Q 2403 2169 2523 2372 
Q 2644 2575 2644 2834 
z
" id="LiberationSans-39" transform="scale(0.015625)"/>
      </defs>
      <use xlink:href="#LiberationSans-31"/>
      <use x="55.615234" xlink:href="#LiberationSans-65"/>
      <use x="111.230469" xlink:href="#LiberationSans-39"/>
     </g>
    </g>
   </g>
   <g id="matplotlib.axis_2">
    <g id="ytick_1">
     <g id="line2d_13">
      <path clip-path="url(#pb4b76dca3d)" d="M 52.587656 300.4 
L 331.587656 300.4 
" style="fill:none;stroke:#ffffff;stroke-linecap:round;"/>
     </g>
     <g id="line2d_14"/>
     <g id="text_9">
      <!-- 0 -->
      <g style="fill:#262626;" transform="translate(40.358438 305.110469)scale(0.13 -0.13)">
       <use xlink:href="#LiberationSans-30"/>
      </g>
     </g>
    </g>
    <g id="ytick_2">
     <g id="line2d_15">
      <path clip-path="url(#pb4b76dca3d)" d="M 52.587656 270.2 
L 331.587656 270.2 
" style="fill:none;stroke:#ffffff;stroke-linecap:round;"/>
     </g>
     <g id="line2d_16"/>
     <g id="text_10">
      <!-- 20 -->
      <g style="fill:#262626;" transform="translate(33.129219 274.910469)scale(0.13 -0.13)">
       <use xlink:href="#LiberationSans-32"/>
       <use x="55.615234" xlink:href="#LiberationSans-30"/>
      </g>
     </g>
    </g>
    <g id="ytick_3">
     <g id="line2d_17">
      <path clip-path="url(#pb4b76dca3d)" d="M 52.587656 240 
L 331.587656 240 
" style="fill:none;stroke:#ffffff;stroke-linecap:round;"/>
     </g>
     <g id="line2d_18"/>
     <g id="text_11">
      <!-- 40 -->
      <g style="fill:#262626;" transform="translate(33.129219 244.710469)scale(0.13 -0.13)">
       <defs>
        <path d="M 2753 997 
L 2753 0 
L 2222 0 
L 2222 997 
L 147 997 
L 147 1434 
L 2163 4403 
L 2753 4403 
L 2753 1441 
L 3372 1441 
L 3372 997 
L 2753 997 
z
M 2222 3769 
Q 2216 3750 2134 3603 
Q 2053 3456 2013 3397 
L 884 1734 
L 716 1503 
L 666 1441 
L 2222 1441 
L 2222 3769 
z
" id="LiberationSans-34" transform="scale(0.015625)"/>
       </defs>
       <use xlink:href="#LiberationSans-34"/>
       <use x="55.615234" xlink:href="#LiberationSans-30"/>
      </g>
     </g>
    </g>
    <g id="ytick_4">
     <g id="line2d_19">
      <path clip-path="url(#pb4b76dca3d)" d="M 52.587656 209.8 
L 331.587656 209.8 
" style="fill:none;stroke:#ffffff;stroke-linecap:round;"/>
     </g>
     <g id="line2d_20"/>
     <g id="text_12">
      <!-- 60 -->
      <g style="fill:#262626;" transform="translate(33.129219 214.510469)scale(0.13 -0.13)">
       <defs>
        <path d="M 3278 1441 
Q 3278 744 2900 340 
Q 2522 -63 1856 -63 
Q 1113 -63 719 490 
Q 325 1044 325 2100 
Q 325 3244 734 3856 
Q 1144 4469 1900 4469 
Q 2897 4469 3156 3572 
L 2619 3475 
Q 2453 4013 1894 4013 
Q 1413 4013 1148 3564 
Q 884 3116 884 2266 
Q 1038 2550 1316 2698 
Q 1594 2847 1953 2847 
Q 2563 2847 2920 2465 
Q 3278 2084 3278 1441 
z
M 2706 1416 
Q 2706 1894 2472 2153 
Q 2238 2413 1819 2413 
Q 1425 2413 1183 2183 
Q 941 1953 941 1550 
Q 941 1041 1192 716 
Q 1444 391 1838 391 
Q 2244 391 2475 664 
Q 2706 938 2706 1416 
z
" id="LiberationSans-36" transform="scale(0.015625)"/>
       </defs>
       <use xlink:href="#LiberationSans-36"/>
       <use x="55.615234" xlink:href="#LiberationSans-30"/>
      </g>
     </g>
    </g>
    <g id="ytick_5">
     <g id="line2d_21">
      <path clip-path="url(#pb4b76dca3d)" d="M 52.587656 179.6 
L 331.587656 179.6 
" style="fill:none;stroke:#ffffff;stroke-linecap:round;"/>
     </g>
     <g id="line2d_22"/>
     <g id="text_13">
      <!-- 80 -->
      <g style="fill:#262626;" transform="translate(33.129219 184.310469)scale(0.13 -0.13)">
       <defs>
        <path d="M 3281 1228 
Q 3281 619 2893 278 
Q 2506 -63 1781 -63 
Q 1075 -63 676 271 
Q 278 606 278 1222 
Q 278 1653 525 1947 
Q 772 2241 1156 2303 
L 1156 2316 
Q 797 2400 589 2681 
Q 381 2963 381 3341 
Q 381 3844 757 4156 
Q 1134 4469 1769 4469 
Q 2419 4469 2795 4162 
Q 3172 3856 3172 3334 
Q 3172 2956 2962 2675 
Q 2753 2394 2391 2322 
L 2391 2309 
Q 2813 2241 3047 1952 
Q 3281 1663 3281 1228 
z
M 2588 3303 
Q 2588 4050 1769 4050 
Q 1372 4050 1164 3862 
Q 956 3675 956 3303 
Q 956 2925 1170 2726 
Q 1384 2528 1775 2528 
Q 2172 2528 2380 2711 
Q 2588 2894 2588 3303 
z
M 2697 1281 
Q 2697 1691 2453 1898 
Q 2209 2106 1769 2106 
Q 1341 2106 1100 1882 
Q 859 1659 859 1269 
Q 859 359 1788 359 
Q 2247 359 2472 579 
Q 2697 800 2697 1281 
z
" id="LiberationSans-38" transform="scale(0.015625)"/>
       </defs>
       <use xlink:href="#LiberationSans-38"/>
       <use x="55.615234" xlink:href="#LiberationSans-30"/>
      </g>
     </g>
    </g>
    <g id="ytick_6">
     <g id="line2d_23">
      <path clip-path="url(#pb4b76dca3d)" d="M 52.587656 149.4 
L 331.587656 149.4 
" style="fill:none;stroke:#ffffff;stroke-linecap:round;"/>
     </g>
     <g id="line2d_24"/>
     <g id="text_14">
      <!-- 100 -->
      <g style="fill:#262626;" transform="translate(25.9 154.110469)scale(0.13 -0.13)">
       <use xlink:href="#LiberationSans-31"/>
       <use x="55.615234" xlink:href="#LiberationSans-30"/>
       <use x="111.230469" xlink:href="#LiberationSans-30"/>
      </g>
     </g>
    </g>
    <g id="ytick_7">
     <g id="line2d_25">
      <path clip-path="url(#pb4b76dca3d)" d="M 52.587656 119.2 
L 331.587656 119.2 
" style="fill:none;stroke:#ffffff;stroke-linecap:round;"/>
     </g>
     <g id="line2d_26"/>
     <g id="text_15">
      <!-- 120 -->
      <g style="fill:#262626;" transform="translate(25.9 123.910469)scale(0.13 -0.13)">
       <use xlink:href="#LiberationSans-31"/>
       <use x="55.615234" xlink:href="#LiberationSans-32"/>
       <use x="111.230469" xlink:href="#LiberationSans-30"/>
      </g>
     </g>
    </g>
    <g id="ytick_8">
     <g id="line2d_27">
      <path clip-path="url(#pb4b76dca3d)" d="M 52.587656 89 
L 331.587656 89 
" style="fill:none;stroke:#ffffff;stroke-linecap:round;"/>
     </g>
     <g id="line2d_28"/>
     <g id="text_16">
      <!-- 140 -->
      <g style="fill:#262626;" transform="translate(25.9 93.710469)scale(0.13 -0.13)">
       <use xlink:href="#LiberationSans-31"/>
       <use x="55.615234" xlink:href="#LiberationSans-34"/>
       <use x="111.230469" xlink:href="#LiberationSans-30"/>
      </g>
     </g>
    </g>
    <g id="ytick_9">
     <g id="line2d_29">
      <path clip-path="url(#pb4b76dca3d)" d="M 52.587656 58.8 
L 331.587656 58.8 
" style="fill:none;stroke:#ffffff;stroke-linecap:round;"/>
     </g>
     <g id="line2d_30"/>
     <g id="text_17">
      <!-- 160 -->
      <g style="fill:#262626;" transform="translate(25.9 63.510469)scale(0.13 -0.13)">
       <use xlink:href="#LiberationSans-31"/>
       <use x="55.615234" xlink:href="#LiberationSans-36"/>
       <use x="111.230469" xlink:href="#LiberationSans-30"/>
      </g>
     </g>
    </g>
    <g id="ytick_10">
     <g id="line2d_31">
      <path clip-path="url(#pb4b76dca3d)" d="M 52.587656 28.6 
L 331.587656 28.6 
" style="fill:none;stroke:#ffffff;stroke-linecap:round;"/>
     </g>
     <g id="line2d_32"/>
     <g id="text_18">
      <!-- 180 -->
      <g style="fill:#262626;" transform="translate(25.9 33.310469)scale(0.13 -0.13)">
       <use xlink:href="#LiberationSans-31"/>
       <use x="55.615234" xlink:href="#LiberationSans-38"/>
       <use x="111.230469" xlink:href="#LiberationSans-30"/>
      </g>
     </g>
    </g>
    <g id="text_19">
     <!-- Maximum angle $\beta$ [°] -->
     <g style="fill:#262626;" transform="translate(18.75 233.575)rotate(-90)scale(0.15 -0.15)">
      <defs>
       <path d="M 4269 0 
L 4269 2938 
Q 4269 3425 4297 3875 
Q 4144 3316 4022 3000 
L 2884 0 
L 2466 0 
L 1313 3000 
L 1138 3531 
L 1034 3875 
L 1044 3528 
L 1056 2938 
L 1056 0 
L 525 0 
L 525 4403 
L 1309 4403 
L 2481 1350 
Q 2544 1166 2601 955 
Q 2659 744 2678 650 
Q 2703 775 2783 1029 
Q 2863 1284 2891 1350 
L 4041 4403 
L 4806 4403 
L 4806 0 
L 4269 0 
z
" id="LiberationSans-4d" transform="scale(0.015625)"/>
       <path d="M 1294 -63 
Q 784 -63 528 206 
Q 272 475 272 944 
Q 272 1469 617 1750 
Q 963 2031 1731 2050 
L 2491 2063 
L 2491 2247 
Q 2491 2659 2316 2837 
Q 2141 3016 1766 3016 
Q 1388 3016 1216 2887 
Q 1044 2759 1009 2478 
L 422 2531 
Q 566 3444 1778 3444 
Q 2416 3444 2737 3151 
Q 3059 2859 3059 2306 
L 3059 850 
Q 3059 600 3125 473 
Q 3191 347 3375 347 
Q 3456 347 3559 369 
L 3559 19 
Q 3347 -31 3125 -31 
Q 2813 -31 2670 133 
Q 2528 297 2509 647 
L 2491 647 
Q 2275 259 1989 98 
Q 1703 -63 1294 -63 
z
M 1422 359 
Q 1731 359 1972 500 
Q 2213 641 2352 886 
Q 2491 1131 2491 1391 
L 2491 1669 
L 1875 1656 
Q 1478 1650 1273 1575 
Q 1069 1500 959 1344 
Q 850 1188 850 934 
Q 850 659 998 509 
Q 1147 359 1422 359 
z
" id="LiberationSans-61" transform="scale(0.015625)"/>
       <path d="M 2503 0 
L 1594 1388 
L 678 0 
L 72 0 
L 1275 1738 
L 128 3381 
L 750 3381 
L 1594 2066 
L 2431 3381 
L 3059 3381 
L 1913 1744 
L 3131 0 
L 2503 0 
z
" id="LiberationSans-78" transform="scale(0.015625)"/>
       <path d="M 428 4100 
L 428 4638 
L 991 4638 
L 991 4100 
L 428 4100 
z
M 428 0 
L 428 3381 
L 991 3381 
L 991 0 
L 428 0 
z
" id="LiberationSans-69" transform="scale(0.015625)"/>
       <path d="M 981 3381 
L 981 1238 
Q 981 903 1047 718 
Q 1113 534 1256 453 
Q 1400 372 1678 372 
Q 2084 372 2318 650 
Q 2553 928 2553 1422 
L 2553 3381 
L 3116 3381 
L 3116 722 
Q 3116 131 3134 0 
L 2603 0 
Q 2600 16 2597 84 
Q 2594 153 2589 242 
Q 2584 331 2578 578 
L 2569 578 
Q 2375 228 2120 82 
Q 1866 -63 1488 -63 
Q 931 -63 673 214 
Q 416 491 416 1128 
L 416 3381 
L 981 3381 
z
" id="LiberationSans-75" transform="scale(0.015625)"/>
       <path d="M 2578 0 
L 2578 2144 
Q 2578 2478 2512 2662 
Q 2447 2847 2303 2928 
Q 2159 3009 1881 3009 
Q 1475 3009 1240 2731 
Q 1006 2453 1006 1959 
L 1006 0 
L 444 0 
L 444 2659 
Q 444 3250 425 3381 
L 956 3381 
Q 959 3366 962 3297 
Q 966 3228 970 3139 
Q 975 3050 981 2803 
L 991 2803 
Q 1184 3153 1439 3298 
Q 1694 3444 2072 3444 
Q 2628 3444 2886 3167 
Q 3144 2891 3144 2253 
L 3144 0 
L 2578 0 
z
" id="LiberationSans-6e" transform="scale(0.015625)"/>
       <path d="M 1713 -1328 
Q 1159 -1328 831 -1111 
Q 503 -894 409 -494 
L 975 -413 
Q 1031 -647 1223 -773 
Q 1416 -900 1728 -900 
Q 2569 -900 2569 84 
L 2569 628 
L 2563 628 
Q 2403 303 2125 139 
Q 1847 -25 1475 -25 
Q 853 -25 561 387 
Q 269 800 269 1684 
Q 269 2581 583 3007 
Q 897 3434 1538 3434 
Q 1897 3434 2161 3270 
Q 2425 3106 2569 2803 
L 2575 2803 
Q 2575 2897 2587 3128 
Q 2600 3359 2613 3381 
L 3147 3381 
Q 3128 3213 3128 2681 
L 3128 97 
Q 3128 -1328 1713 -1328 
z
M 2569 1691 
Q 2569 2103 2456 2401 
Q 2344 2700 2139 2858 
Q 1934 3016 1675 3016 
Q 1244 3016 1047 2703 
Q 850 2391 850 1691 
Q 850 997 1034 694 
Q 1219 391 1666 391 
Q 1931 391 2137 547 
Q 2344 703 2456 995 
Q 2569 1288 2569 1691 
z
" id="LiberationSans-67" transform="scale(0.015625)"/>
       <path d="M 431 0 
L 431 4638 
L 994 4638 
L 994 0 
L 431 0 
z
" id="LiberationSans-6c" transform="scale(0.015625)"/>
       <path d="M 872 216 
L 572 -1331 
L -6 -1331 
L 928 3478 
Q 1206 4903 2538 4903 
Q 3888 4903 3659 3700 
Q 3503 2844 2894 2531 
Q 3713 2250 3553 1416 
Q 3272 -69 1759 -66 
Q 1097 -63 872 216 
z
M 1019 966 
Q 1259 422 1875 425 
Q 2775 425 2966 1406 
Q 3138 2288 1675 2219 
L 1778 2750 
Q 2909 2731 3106 3750 
Q 3241 4438 2509 4434 
Q 1691 4434 1503 3459 
L 1019 966 
z
" id="DejaVuSans-Oblique-3b2" transform="scale(0.015625)"/>
       <path d="M 2175 3578 
Q 2175 3206 1911 2947 
Q 1647 2688 1278 2688 
Q 909 2688 645 2950 
Q 381 3213 381 3578 
Q 381 3944 642 4206 
Q 903 4469 1278 4469 
Q 1653 4469 1914 4209 
Q 2175 3950 2175 3578 
z
M 1834 3578 
Q 1834 3816 1673 3978 
Q 1513 4141 1278 4141 
Q 1044 4141 883 3975 
Q 722 3809 722 3578 
Q 722 3347 886 3181 
Q 1050 3016 1278 3016 
Q 1509 3016 1671 3180 
Q 1834 3344 1834 3578 
z
" id="LiberationSans-b0" transform="scale(0.015625)"/>
      </defs>
      <use transform="translate(0 0.390625)" xlink:href="#LiberationSans-4d"/>
      <use transform="translate(83.300781 0.390625)" xlink:href="#LiberationSans-61"/>
      <use transform="translate(138.916016 0.390625)" xlink:href="#LiberationSans-78"/>
      <use transform="translate(188.916016 0.390625)" xlink:href="#LiberationSans-69"/>
      <use transform="translate(211.132812 0.390625)" xlink:href="#LiberationSans-6d"/>
      <use transform="translate(294.433594 0.390625)" xlink:href="#LiberationSans-75"/>
      <use transform="translate(350.048828 0.390625)" xlink:href="#LiberationSans-6d"/>
      <use transform="translate(433.349609 0.390625)" xlink:href="#LiberationSans-20"/>
      <use transform="translate(461.132812 0.390625)" xlink:href="#LiberationSans-61"/>
      <use transform="translate(516.748047 0.390625)" xlink:href="#LiberationSans-6e"/>
      <use transform="translate(572.363281 0.390625)" xlink:href="#LiberationSans-67"/>
      <use transform="translate(627.978516 0.390625)" xlink:href="#LiberationSans-6c"/>
      <use transform="translate(650.195312 0.390625)" xlink:href="#LiberationSans-65"/>
      <use transform="translate(705.810547 0.390625)" xlink:href="#LiberationSans-20"/>
      <use transform="translate(733.59375 0.390625)" xlink:href="#DejaVuSans-Oblique-3b2"/>
      <use transform="translate(797.412109 0.390625)" xlink:href="#LiberationSans-20"/>
      <use transform="translate(825.195312 0.390625)" xlink:href="#LiberationSans-5b"/>
      <use transform="translate(852.978516 0.390625)" xlink:href="#LiberationSans-b0"/>
      <use transform="translate(892.96875 0.390625)" xlink:href="#LiberationSans-5d"/>
     </g>
    </g>
   </g>
   <g id="line2d_33">
    <path clip-path="url(#pb4b76dca3d)" d="M 65.269474 149.172314 
L 149.814929 166.70288 
L 234.360384 172.546402 
L 318.905838 175.468163 
" style="fill:none;stroke:#4c72b0;stroke-linecap:round;stroke-width:1.75;"/>
   </g>
   <g id="line2d_34">
    <defs>
     <path d="M 0 3.5 
C 0.928211 3.5 1.81853 3.131218 2.474874 2.474874 
C 3.131218 1.81853 3.5 0.928211 3.5 0 
C 3.5 -0.928211 3.131218 -1.81853 2.474874 -2.474874 
C 1.81853 -3.131218 0.928211 -3.5 0 -3.5 
C -0.928211 -3.5 -1.81853 -3.131218 -2.474874 -2.474874 
C -3.131218 -1.81853 -3.5 -0.928211 -3.5 0 
C -3.5 0.928211 -3.131218 1.81853 -2.474874 2.474874 
C -1.81853 3.131218 -0.928211 3.5 0 3.5 
z
" id="m1e7fc559b1"/>
    </defs>
    <g clip-path="url(#pb4b76dca3d)">
     <use style="fill:#dd8452;" x="65.269474" xlink:href="#m1e7fc559b1" y="149.820395"/>
     <use style="fill:#dd8452;" x="149.814929" xlink:href="#m1e7fc559b1" y="164.817922"/>
     <use style="fill:#dd8452;" x="234.360384" xlink:href="#m1e7fc559b1" y="172.368538"/>
     <use style="fill:#dd8452;" x="318.905838" xlink:href="#m1e7fc559b1" y="176.882902"/>
    </g>
   </g>
   <g id="line2d_35">
    <path clip-path="url(#pb4b76dca3d)" d="M 65.269474 240.479999 
L 149.814929 271.214722 
L 234.360384 281.459629 
L 318.905838 286.582083 
" style="fill:none;stroke:#55a868;stroke-linecap:round;stroke-width:1.75;"/>
   </g>
   <g id="line2d_36">
    <defs>
     <path d="M 0 3.5 
C 0.928211 3.5 1.81853 3.131218 2.474874 2.474874 
C 3.131218 1.81853 3.5 0.928211 3.5 0 
C 3.5 -0.928211 3.131218 -1.81853 2.474874 -2.474874 
C 1.81853 -3.131218 0.928211 -3.5 0 -3.5 
C -0.928211 -3.5 -1.81853 -3.131218 -2.474874 -2.474874 
C -3.131218 -1.81853 -3.5 -0.928211 -3.5 0 
C -3.5 0.928211 -3.131218 1.81853 -2.474874 2.474874 
C -1.81853 3.131218 -0.928211 3.5 0 3.5 
z
" id="mff5ae8b03a"/>
    </defs>
    <g clip-path="url(#pb4b76dca3d)">
     <use style="fill:#c44e52;" x="65.269474" xlink:href="#mff5ae8b03a" y="239.399525"/>
     <use style="fill:#c44e52;" x="149.814929" xlink:href="#mff5ae8b03a" y="274.600609"/>
     <use style="fill:#c44e52;" x="234.360384" xlink:href="#mff5ae8b03a" y="281.026239"/>
     <use style="fill:#c44e52;" x="318.905838" xlink:href="#mff5ae8b03a" y="284.71006"/>
    </g>
   </g>
   <g id="patch_3">
    <path d="M 52.587656 300.4 
L 52.587656 28.6 
" style="fill:none;"/>
   </g>
   <g id="patch_4">
    <path d="M 331.587656 300.4 
L 331.587656 28.6 
" style="fill:none;"/>
   </g>
   <g id="patch_5">
    <path d="M 52.587656 300.4 
L 331.587656 300.4 
" style="fill:none;"/>
   </g>
   <g id="patch_6">
    <path d="M 52.587656 28.6 
L 331.587656 28.6 
" style="fill:none;"/>
   </g>
   <g id="text_20">
    <!-- maximum angle $\beta$ [$\degree$] -->
    <g style="fill:#262626;" transform="translate(98.987656 22.6)scale(0.2 -0.2)">
     <defs>
      <path d="M 1600 4347 
Q 1350 4347 1178 4173 
Q 1006 4000 1006 3750 
Q 1006 3503 1178 3333 
Q 1350 3163 1600 3163 
Q 1850 3163 2022 3333 
Q 2194 3503 2194 3750 
Q 2194 3997 2020 4172 
Q 1847 4347 1600 4347 
z
M 1600 4750 
Q 1800 4750 1984 4673 
Q 2169 4597 2303 4453 
Q 2447 4313 2519 4134 
Q 2591 3956 2591 3750 
Q 2591 3338 2302 3052 
Q 2013 2766 1594 2766 
Q 1172 2766 890 3047 
Q 609 3328 609 3750 
Q 609 4169 896 4459 
Q 1184 4750 1600 4750 
z
" id="DejaVuSans-b0" transform="scale(0.015625)"/>
     </defs>
     <use transform="translate(0 0.390625)" xlink:href="#LiberationSans-6d"/>
     <use transform="translate(83.300781 0.390625)" xlink:href="#LiberationSans-61"/>
     <use transform="translate(138.916016 0.390625)" xlink:href="#LiberationSans-78"/>
     <use transform="translate(188.916016 0.390625)" xlink:href="#LiberationSans-69"/>
     <use transform="translate(211.132812 0.390625)" xlink:href="#LiberationSans-6d"/>
     <use transform="translate(294.433594 0.390625)" xlink:href="#LiberationSans-75"/>
     <use transform="translate(350.048828 0.390625)" xlink:href="#LiberationSans-6d"/>
     <use transform="translate(433.349609 0.390625)" xlink:href="#LiberationSans-20"/>
     <use transform="translate(461.132812 0.390625)" xlink:href="#LiberationSans-61"/>
     <use transform="translate(516.748047 0.390625)" xlink:href="#LiberationSans-6e"/>
     <use transform="translate(572.363281 0.390625)" xlink:href="#LiberationSans-67"/>
     <use transform="translate(627.978516 0.390625)" xlink:href="#LiberationSans-6c"/>
     <use transform="translate(650.195312 0.390625)" xlink:href="#LiberationSans-65"/>
     <use transform="translate(705.810547 0.390625)" xlink:href="#LiberationSans-20"/>
     <use transform="translate(733.59375 0.390625)" xlink:href="#DejaVuSans-Oblique-3b2"/>
     <use transform="translate(797.412109 0.390625)" xlink:href="#LiberationSans-20"/>
     <use transform="translate(825.195312 0.390625)" xlink:href="#LiberationSans-5b"/>
     <use transform="translate(852.978516 0.390625)" xlink:href="#DejaVuSans-b0"/>
     <use transform="translate(902.978516 0.390625)" xlink:href="#LiberationSans-5d"/>
    </g>
   </g>
   <g id="legend_1">
    <g id="line2d_37">
     <path d="M 247.853906 43.89625 
L 271.853906 43.89625 
" style="fill:none;stroke:#4c72b0;stroke-linecap:round;stroke-width:1.75;"/>
    </g>
    <g id="line2d_38"/>
    <g id="text_21">
     <!-- BP Fit -->
     <g style="fill:#262626;" transform="translate(281.453906 48.09625)scale(0.12 -0.12)">
      <defs>
       <path d="M 3931 1241 
Q 3931 653 3503 326 
Q 3075 0 2313 0 
L 525 0 
L 525 4403 
L 2125 4403 
Q 3675 4403 3675 3334 
Q 3675 2944 3456 2678 
Q 3238 2413 2838 2322 
Q 3363 2259 3647 1970 
Q 3931 1681 3931 1241 
z
M 3075 3263 
Q 3075 3619 2831 3772 
Q 2588 3925 2125 3925 
L 1122 3925 
L 1122 2531 
L 2125 2531 
Q 2603 2531 2839 2711 
Q 3075 2891 3075 3263 
z
M 3328 1288 
Q 3328 2066 2234 2066 
L 1122 2066 
L 1122 478 
L 2281 478 
Q 2828 478 3078 681 
Q 3328 884 3328 1288 
z
" id="LiberationSans-42" transform="scale(0.015625)"/>
       <path d="M 3931 3078 
Q 3931 2453 3523 2084 
Q 3116 1716 2416 1716 
L 1122 1716 
L 1122 0 
L 525 0 
L 525 4403 
L 2378 4403 
Q 3119 4403 3525 4056 
Q 3931 3709 3931 3078 
z
M 3331 3072 
Q 3331 3925 2306 3925 
L 1122 3925 
L 1122 2188 
L 2331 2188 
Q 3331 2188 3331 3072 
z
" id="LiberationSans-50" transform="scale(0.015625)"/>
       <path d="M 1122 3916 
L 1122 2278 
L 3578 2278 
L 3578 1784 
L 1122 1784 
L 1122 0 
L 525 0 
L 525 4403 
L 3653 4403 
L 3653 3916 
L 1122 3916 
z
" id="LiberationSans-46" transform="scale(0.015625)"/>
       <path d="M 1731 25 
Q 1453 -50 1163 -50 
Q 488 -50 488 716 
L 488 2972 
L 97 2972 
L 97 3381 
L 509 3381 
L 675 4138 
L 1050 4138 
L 1050 3381 
L 1675 3381 
L 1675 2972 
L 1050 2972 
L 1050 838 
Q 1050 594 1129 495 
Q 1209 397 1406 397 
Q 1519 397 1731 441 
L 1731 25 
z
" id="LiberationSans-74" transform="scale(0.015625)"/>
      </defs>
      <use xlink:href="#LiberationSans-42"/>
      <use x="66.699219" xlink:href="#LiberationSans-50"/>
      <use x="131.648438" xlink:href="#LiberationSans-20"/>
      <use x="159.431641" xlink:href="#LiberationSans-46"/>
      <use x="220.515625" xlink:href="#LiberationSans-69"/>
      <use x="242.732422" xlink:href="#LiberationSans-74"/>
     </g>
    </g>
    <g id="line2d_39"/>
    <g id="line2d_40">
     <g>
      <use style="fill:#dd8452;" x="259.853906" xlink:href="#m1e7fc559b1" y="61.0825"/>
     </g>
    </g>
    <g id="text_22">
     <!-- BP MM -->
     <g style="fill:#262626;" transform="translate(281.453906 65.2825)scale(0.12 -0.12)">
      <use xlink:href="#LiberationSans-42"/>
      <use x="66.699219" xlink:href="#LiberationSans-50"/>
      <use x="131.648438" xlink:href="#LiberationSans-20"/>
      <use x="159.431641" xlink:href="#LiberationSans-4d"/>
      <use x="242.732422" xlink:href="#LiberationSans-4d"/>
     </g>
    </g>
    <g id="line2d_41">
     <path d="M 247.853906 78.26875 
L 271.853906 78.26875 
" style="fill:none;stroke:#55a868;stroke-linecap:round;stroke-width:1.75;"/>
    </g>
    <g id="line2d_42"/>
    <g id="text_23">
     <!-- BV Fit -->
     <g style="fill:#262626;" transform="translate(281.453906 82.46875)scale(0.12 -0.12)">
      <defs>
       <path d="M 2444 0 
L 1825 0 
L 28 4403 
L 656 4403 
L 1875 1303 
L 2138 525 
L 2400 1303 
L 3613 4403 
L 4241 4403 
L 2444 0 
z
" id="LiberationSans-56" transform="scale(0.015625)"/>
      </defs>
      <use xlink:href="#LiberationSans-42"/>
      <use x="66.699219" xlink:href="#LiberationSans-56"/>
      <use x="133.398438" xlink:href="#LiberationSans-20"/>
      <use x="161.181641" xlink:href="#LiberationSans-46"/>
      <use x="222.265625" xlink:href="#LiberationSans-69"/>
      <use x="244.482422" xlink:href="#LiberationSans-74"/>
     </g>
    </g>
    <g id="line2d_43"/>
    <g id="line2d_44">
     <g>
      <use style="fill:#c44e52;" x="259.853906" xlink:href="#mff5ae8b03a" y="95.455"/>
     </g>
    </g>
    <g id="text_24">
     <!-- BV MM -->
     <g style="fill:#262626;" transform="translate(281.453906 99.655)scale(0.12 -0.12)">
      <use xlink:href="#LiberationSans-42"/>
      <use x="66.699219" xlink:href="#LiberationSans-56"/>
      <use x="133.398438" xlink:href="#LiberationSans-20"/>
      <use x="161.181641" xlink:href="#LiberationSans-4d"/>
      <use x="244.482422" xlink:href="#LiberationSans-4d"/>
     </g>
    </g>
   </g>
  </g>
 </g>
 <defs>
  <clipPath id="pb4b76dca3d">
   <rect height="271.8" width="279" x="52.587656" y="28.6"/>
  </clipPath>
 </defs>
</svg>
